<svg xmlns="http://www.w3.org/2000/svg" xmlns:xlink="http://www.w3.org/1999/xlink" width="582.38" height="413.83" viewBox="0 0 582.38 413.83">
  <defs>
    <linearGradient id="linear-gradient" x1="0.5" y1="1" x2="0.5" gradientUnits="objectBoundingBox">
      <stop offset="0" stop-color="gray" stop-opacity="0.251"/>
      <stop offset="0.54" stop-color="gray" stop-opacity="0.122"/>
      <stop offset="1" stop-color="gray" stop-opacity="0.102"/>
    </linearGradient>
    <linearGradient id="linear-gradient-2" y1="1" y2="0" xlink:href="#linear-gradient"/>
    <linearGradient id="linear-gradient-4" y1="1" y2="0" xlink:href="#linear-gradient"/>
    <linearGradient id="linear-gradient-5" y1="1" y2="0" xlink:href="#linear-gradient"/>
    <linearGradient id="linear-gradient-6" y1="1" y2="0" xlink:href="#linear-gradient"/>
    <linearGradient id="linear-gradient-23" x1="-1.293" y1="1" x2="-1.293" y2="0" xlink:href="#linear-gradient"/>
    <linearGradient id="linear-gradient-24" x1="0.419" y1="1" x2="0.419" y2="0" xlink:href="#linear-gradient"/>
  </defs>
  <g id="kanban_img2" transform="translate(0 0)">
    <path id="Caminho_28" data-name="Caminho 28" d="M593.47,297.32a158.3,158.3,0,0,1-3.5,33.272q-1.177,5.493-2.734,10.769-1.928,6.576-4.411,12.752-1.261,3.145-2.665,6.181a94.291,94.291,0,0,1-6.018,33.41c-7.1,18.789-20.016,34.117-36.184,43.072a67.741,67.741,0,0,1-32.955,8.584H121.645c-20.49,0-39.482-7.283-55.053-19.694a101.492,101.492,0,0,1-12.643-12.04A107.539,107.539,0,0,1,40.05,393.7a118.533,118.533,0,0,1-14.136-56.679c-9.37-18.972-14.824-41.717-14.824-66.193,0-30.849,8.683-58.984,22.948-80.29a109.8,109.8,0,0,1,9.746-12.525,95.34,95.34,0,0,1,11.145-10.542,84.807,84.807,0,0,1,9.889-6.853c1.429-.841,2.863-1.632,4.322-2.368q1.918-.989,3.886-1.844,2.359-1.038,4.776-1.9t4.771-1.518a67.5,67.5,0,0,1,7.046-1.567q2.967-.512,5.933-.757,2.359-.193,4.757-.223h.865c1.76,0,3.511.084,5.246.218.183-.425.381-.85.564-1.276.692-1.523,1.409-3.036,2.131-4.529a.172.172,0,0,0,0-.04c.124-.257.247-.494.376-.766.583-1.216,1.192-2.423,1.815-3.619.287-.554.569-1.1.86-1.651.064-.129.129-.252.2-.381.3-.569.6-1.132.9-1.7q2.289-4.218,4.762-8.307c.143-.232.277-.465.42-.692.257-.42.494-.841.781-1.256.682-1.108,1.384-2.21,2.092-3.3.494-.771.989-1.543,1.523-2.3q1.928-2.893,3.956-5.711t4.213-5.637c.2-.257.4-.494.6-.766l2.111-2.655h0l.292-.361h0l.766-.935c1.132-1.38,2.294-2.744,3.461-4.094a199.157,199.157,0,0,1,18.938-19.061c.262-.242.529-.494.791-.7,1.256-1.093,2.532-2.171,3.807-3.229a199.538,199.538,0,0,1,21.959-15.823c.524-.336,1.058-.663,1.6-.989A199.694,199.694,0,0,1,206.356,49.7q5.933-2.729,11.991-5.053c2.68-1.019,5.37-1.978,8.094-2.888q6.319-2.087,12.8-3.783a200.226,200.226,0,0,1,38.686-6.092q5.933-.356,12-.356a200.957,200.957,0,0,1,57.846,8.45,2.017,2.017,0,0,0,1.795,1.078h1.666c.722.227,1.439.465,2.161.7q6.047,2.007,11.921,4.4l.989.405A200.526,200.526,0,0,1,418,77.643q1.735,1.429,3.422,2.9,2.047-1.518,4.163-2.9a76.147,76.147,0,0,1,17.247-8.495A68.566,68.566,0,0,1,481.52,67.4c16.441,4.03,31.324,14.028,43.344,28.243a115.97,115.97,0,0,1,13,19.066c.272.494.544.989.806,1.483a134.276,134.276,0,0,1,8.277,19.061c.084.237.168.494.242.712a147.621,147.621,0,0,1,5.093,19.051c.059.326.128.658.188.989a157.174,157.174,0,0,1,2.433,19.061,4.117,4.117,0,0,0,.04.7q.311,4.974.316,10.057,0,4.549-.252,9.009c0,.331-.04.668-.064.989-.045.865-.109,1.731-.173,2.591A101.574,101.574,0,0,1,565.34,209.92q2.161,2.734,4.183,5.662A123.557,123.557,0,0,1,580.3,234.642,151.04,151.04,0,0,1,593.47,297.32Z" transform="translate(-11.09 -31.53)" fill="#009688" opacity="0.1"/>
    <path id="Caminho_29" data-name="Caminho 29" d="M603.264,800.564c0,7.343-22.705,14.043-60.017,19.106H193.172c-37.307-5.063-60.012-11.763-60.012-19.106,0-5.592,13.172-10.814,35.947-15.224h0l.643-.124c6.428-1.231,13.612-2.4,21.464-3.491l.6-.084h0q9.345-1.291,19.882-2.438l.663-.069q4.064-.445,8.3-.86h0l1.088-.1c20.545-1.978,43.9-3.58,69.224-4.653H291q5.32-.222,10.754-.415,6.042-.222,12.233-.4c3.15-.094,6.339-.173,9.538-.247h.074c14.433-.341,29.346-.519,44.595-.519,37.707,0,73.348,1.083,104.928,3.006h.089c4.856.3,9.622.608,14.27.944l3.956.292q7.867.593,15.328,1.256h0C565.27,782.645,603.264,791.066,603.264,800.564Z" transform="translate(-72.802 -405.84)" fill="#009688" opacity="0.1"/>
    <path id="Caminho_30" data-name="Caminho 30" d="M297.859,134.772v15a2.027,2.027,0,0,1-2.027,2.032H268.38a199.144,199.144,0,0,1,18.938-19.061h8.52A2.027,2.027,0,0,1,297.859,134.772Z" transform="translate(-141.161 -82.696)" fill="none" stroke="#fff" stroke-miterlimit="10" stroke-width="1" opacity="0.03"/>
    <path id="Caminho_31" data-name="Caminho 31" d="M584.012,130.769V356.053a5.933,5.933,0,0,1-5.933,5.933H175.843a5.933,5.933,0,0,1-5.933-5.933V198.613q2.967-.512,5.933-.757,2.359-.193,4.757-.223h.865c1.76,0,3.511.084,5.246.218.183-.425.381-.85.564-1.276.692-1.523,1.409-3.036,2.131-4.529a.173.173,0,0,0,0-.04c.124-.257.247-.494.376-.766.583-1.216,1.192-2.423,1.815-3.619.287-.554.569-1.1.86-1.651.064-.129.129-.252.2-.381.3-.569.6-1.132.9-1.7q2.289-4.218,4.762-8.307c.143-.232.277-.465.42-.692.257-.42.494-.841.781-1.256.682-1.108,1.384-2.21,2.092-3.3.494-.771.989-1.543,1.523-2.3q1.928-2.893,3.956-5.711t4.213-5.637c.2-.257.4-.494.6-.766l2.111-2.655h0l.292-.361h0l.766-.935c1.132-1.38,2.294-2.744,3.461-4.094a199.157,199.157,0,0,1,18.938-19.061c.262-.242.529-.494.791-.7,1.256-1.093,2.532-2.171,3.807-3.229H498.308q1.736,1.429,3.422,2.9,2.047-1.518,4.163-2.9h72.191A5.933,5.933,0,0,1,584.012,130.769Z" transform="translate(-91.381 -78.723)" fill="#fff"/>
    <path id="Caminho_32" data-name="Caminho 32" d="M590.61,212.09V217.7H229.88c.682-1.108,1.384-2.21,2.1-3.3.494-.771.989-1.543,1.518-2.3Z" transform="translate(-121.698 -122.811)" fill="#3f3d56"/>
    <rect id="Retângulo_9" data-name="Retângulo 9" width="213.531" height="5.607" transform="translate(391.54 61.886) rotate(90)" fill="#3f3d56"/>
    <rect id="Retângulo_10" data-name="Retângulo 10" width="213.531" height="5.607" transform="translate(288.381 61.886) rotate(90)" fill="#3f3d56"/>
    <rect id="Retângulo_11" data-name="Retângulo 11" width="213.531" height="5.607" transform="translate(185.223 61.886) rotate(90)" fill="#3f3d56"/>
    <path id="Caminho_33" data-name="Caminho 33" d="M232.174,247.6v22.082h-22.8V254.018c.124-.257.247-.494.376-.766.588-1.216,1.192-2.423,1.82-3.619.282-.554.564-1.1.855-1.651.064-.129.134-.252.2-.381Z" transform="translate(-111.329 -140.763)" fill="url(#linear-gradient)"/>
    <path id="Caminho_34" data-name="Caminho 34" d="M232.188,248.355v21.321H210.17V253.611c.588-1.216,1.192-2.423,1.82-3.619.282-.554.564-1.1.855-1.651Z" transform="translate(-111.734 -141.137)" fill="#7cfcff"/>
    <rect id="Retângulo_12" data-name="Retângulo 12" width="22.809" height="22.082" transform="translate(190.405 100.107)" fill="url(#linear-gradient-2)"/>
    <rect id="Retângulo_13" data-name="Retângulo 13" width="22.023" height="21.321" transform="translate(190.801 100.488)" fill="#7cfcff"/>
    <rect id="Retângulo_14" data-name="Retângulo 14" width="22.809" height="22.082" transform="translate(293.425 142.982)" fill="url(#linear-gradient-2)"/>
    <rect id="Retângulo_15" data-name="Retângulo 15" width="22.023" height="21.321" transform="translate(293.82 143.362)" fill="#7cfcff"/>
    <rect id="Retângulo_16" data-name="Retângulo 16" width="22.809" height="22.082" transform="translate(398.546 157.608)" fill="url(#linear-gradient-4)"/>
    <rect id="Retângulo_17" data-name="Retângulo 17" width="22.023" height="21.321" transform="translate(398.937 157.988)" fill="#7cfcff"/>
    <rect id="Retângulo_18" data-name="Retângulo 18" width="22.809" height="22.082" transform="translate(426.71 171.902)" fill="url(#linear-gradient-5)"/>
    <rect id="Retângulo_19" data-name="Retângulo 19" width="22.023" height="21.321" transform="translate(427.106 172.283)" fill="#7cfcff"/>
    <rect id="Retângulo_20" data-name="Retângulo 20" width="22.809" height="22.082" transform="translate(462.034 133.706)" fill="url(#linear-gradient-6)"/>
    <rect id="Retângulo_21" data-name="Retângulo 21" width="22.023" height="21.321" transform="translate(462.425 134.086)" fill="#7cfcff"/>
    <rect id="Retângulo_22" data-name="Retângulo 22" width="22.809" height="22.082" transform="translate(454.884 164.688)" fill="url(#linear-gradient-4)"/>
    <rect id="Retângulo_23" data-name="Retângulo 23" width="22.023" height="21.321" transform="translate(455.275 165.069)" fill="#7cfcff"/>
    <rect id="Retângulo_24" data-name="Retângulo 24" width="22.809" height="22.082" transform="translate(221.521 100.107)" fill="url(#linear-gradient-2)"/>
    <rect id="Retângulo_25" data-name="Retângulo 25" width="22.023" height="21.321" transform="translate(221.917 100.488)" fill="#7cfcff"/>
    <rect id="Retângulo_26" data-name="Retângulo 26" width="22.809" height="22.082" transform="translate(114.946 153.642)" fill="url(#linear-gradient-6)"/>
    <rect id="Retângulo_27" data-name="Retângulo 27" width="22.023" height="21.321" transform="translate(115.337 154.023)" fill="#ffffa5"/>
    <rect id="Retângulo_28" data-name="Retângulo 28" width="22.809" height="22.082" transform="translate(206.865 131.94)" fill="url(#linear-gradient-5)"/>
    <rect id="Retângulo_29" data-name="Retângulo 29" width="22.023" height="21.321" transform="translate(207.261 132.321)" fill="#ffffa5"/>
    <rect id="Retângulo_30" data-name="Retângulo 30" width="22.809" height="22.082" transform="translate(325.752 118.743)" fill="url(#linear-gradient-4)"/>
    <rect id="Retângulo_31" data-name="Retângulo 31" width="22.023" height="21.321" transform="translate(326.143 119.124)" fill="#ffffa5"/>
    <rect id="Retângulo_32" data-name="Retângulo 32" width="22.809" height="22.082" transform="translate(446.098 103.257)" fill="url(#linear-gradient-5)"/>
    <rect id="Retângulo_33" data-name="Retângulo 33" width="22.023" height="21.321" transform="translate(446.493 103.638)" fill="#ffffa5"/>
    <rect id="Retângulo_34" data-name="Retângulo 34" width="22.809" height="22.082" transform="translate(355.845 100.107)" fill="url(#linear-gradient-6)"/>
    <rect id="Retângulo_35" data-name="Retângulo 35" width="22.023" height="21.321" transform="translate(356.236 100.488)" fill="#ffffa5"/>
    <rect id="Retângulo_36" data-name="Retângulo 36" width="22.809" height="22.082" transform="translate(354.549 142.982)" fill="url(#linear-gradient-2)"/>
    <rect id="Retângulo_37" data-name="Retângulo 37" width="22.023" height="21.321" transform="translate(354.945 143.362)" fill="#ffffa5"/>
    <rect id="Retângulo_38" data-name="Retângulo 38" width="22.809" height="22.082" transform="translate(252.148 110.773)" fill="url(#linear-gradient-5)"/>
    <rect id="Retângulo_39" data-name="Retângulo 39" width="22.023" height="21.321" transform="translate(252.543 111.149)" fill="#ffffa5"/>
    <rect id="Retângulo_40" data-name="Retângulo 40" width="22.809" height="22.082" transform="translate(130.957 117.878)" fill="url(#linear-gradient-5)"/>
    <rect id="Retângulo_41" data-name="Retângulo 41" width="22.023" height="21.321" transform="translate(131.352 118.259)" fill="#ff69b4"/>
    <rect id="Retângulo_42" data-name="Retângulo 42" width="22.809" height="22.082" transform="translate(142.364 142.982)" fill="url(#linear-gradient-6)"/>
    <rect id="Retângulo_43" data-name="Retângulo 43" width="22.023" height="21.321" transform="translate(142.754 143.362)" fill="#ff69b4"/>
    <rect id="Retângulo_44" data-name="Retângulo 44" width="22.809" height="22.082" transform="translate(236.973 146.566)" fill="url(#linear-gradient-4)"/>
    <rect id="Retângulo_45" data-name="Retângulo 45" width="22.023" height="21.321" transform="translate(237.363 146.947)" fill="#ff69b4"/>
    <rect id="Retângulo_46" data-name="Retângulo 46" width="22.809" height="22.082" transform="translate(403.901 103.257)" fill="url(#linear-gradient-5)"/>
    <rect id="Retângulo_47" data-name="Retângulo 47" width="22.023" height="21.321" transform="translate(404.297 103.638)" fill="#ff69b4"/>
    <rect id="Retângulo_48" data-name="Retângulo 48" width="22.809" height="22.082" transform="translate(424.085 133.706)" fill="url(#linear-gradient-2)"/>
    <rect id="Retângulo_49" data-name="Retângulo 49" width="22.023" height="21.321" transform="translate(424.48 134.086)" fill="#ff69b4"/>
    <rect id="Retângulo_50" data-name="Retângulo 50" width="22.809" height="22.082" transform="translate(295.418 100.107)" fill="url(#linear-gradient-2)"/>
    <rect id="Retângulo_51" data-name="Retângulo 51" width="22.023" height="21.321" transform="translate(295.813 100.488)" fill="#ff69b4"/>
    <rect id="Retângulo_52" data-name="Retângulo 52" width="22.809" height="22.082" transform="translate(323.171 164.688)" fill="url(#linear-gradient-4)"/>
    <rect id="Retângulo_53" data-name="Retângulo 53" width="22.023" height="21.321" transform="translate(323.562 165.069)" fill="#ff69b4"/>
    <path id="Caminho_35" data-name="Caminho 35" d="M808.531,309.033a4.366,4.366,0,0,0-1.74-2.927,17.334,17.334,0,0,0-3.026-1.75,2.471,2.471,0,0,1-.88-.628,7.878,7.878,0,0,1-.494-.949c-.593-1.033-1.879-1.36-2.888-1.978-1.8-1.093-2.63-3.031-3.377-5.068-.049-.129-.089-.257-.138-.381-.727-2.017-1.419-4.084-2.927-5.5a6.28,6.28,0,0,0-7.852-.42,1.849,1.849,0,0,1-1.108.549,2.092,2.092,0,0,1-1.063-.574,4.336,4.336,0,0,0-2.65-.732,25.259,25.259,0,0,1-.747-5.513v-.049h0a.074.074,0,0,1,0-.035h0V281.7h.312a3.535,3.535,0,0,0,1.093-.124,2.961,2.961,0,0,0,.43-.158h0a6.465,6.465,0,0,0,2.734-3.516c.4-.93.761-1.884,1.073-2.858.04-.124.074-.247.119-.376h0c.054-.2.119-.4.168-.6a.922.922,0,0,1,.049-.193c.015-.064.035-.124.049-.188l.044-.208.252.178h0l.044.025.544.381c2.551,1.745,5.231,3.392,6.339,3.432h0a.574.574,0,0,0,.326-.064c.717-.4-.658-1.869-2.383-3.367-.143-.129-.3-.252-.45-.381-1.281-1.083-2.66-2.131-3.461-2.734l-.742-.539a7.31,7.31,0,0,0,1.82-3.956,30.683,30.683,0,0,0,.465-4.148v-.069a16.737,16.737,0,0,0-.4-4.45,10.293,10.293,0,0,0-4.945-6.853c-.742-.386-1.587-.687-2.319-1.1-.138-.079-.262-.163-.391-.247h0a3.432,3.432,0,0,1-.643-.549,2.242,2.242,0,0,1-.326-.445,1.326,1.326,0,0,1-.128-.232,3,3,0,0,0-.366-.707c-.495-.549-1.325-.386-2.042-.3h-.618c-2.566.059-5.043-1.375-7.639-1.375-2.838,0-5.256,1.647-7.758,2.774-.494.232-.989.44-1.429.653-.376.178-.727.356-1.068.549h0q-.2.111-.386.242h0a5.488,5.488,0,0,0-2.116,2.472,5.092,5.092,0,0,0-1.043,2.012,4.964,4.964,0,0,0-.134,1.033,17.143,17.143,0,0,0-5.128,12.213v.747a17.158,17.158,0,0,0,12.208,15.7h0c.193.059.391.119.593.168.049.168.119.336.168.494.1.321.2.638.277.959h0a4.856,4.856,0,0,1,.119.494,13.386,13.386,0,0,1,.356,3.357c0,.1,0,.193,0,.3h0v.035a13.033,13.033,0,0,0-3.708,1.483,7.155,7.155,0,0,0-3.12,3.842,3.092,3.092,0,0,0-.1.361,9.928,9.928,0,0,0-2.823-.494,3.01,3.01,0,0,0-2.433.727,2.2,2.2,0,0,0-.45.935c-.336.3-.4.831-.628,1.236-.722,1.266-2.6.85-4.015,1.2a2.786,2.786,0,0,0-.42.138h0c-1.34.494-2.472,1.681-3.9,1.691a9.951,9.951,0,0,0-1.706-.094l-.1.025c-.588.148-1.058.959-.6,1.365a1.937,1.937,0,0,0-1.825.875c-.445.564-.717,1.236-1.2,1.765a1.849,1.849,0,0,0-1.874-.727,6.8,6.8,0,0,0-1.978.781,2.714,2.714,0,0,1-.875.307,3.786,3.786,0,0,1-1.053-.094,8.5,8.5,0,0,0-4.989.7c-1.365.648-2.685-.544-4.193-.638a2.324,2.324,0,0,1-1.533-.494.662.662,0,0,1-.114-.124,2.234,2.234,0,0,1-.218-.381c-.1-.227-.163-.495-.247-.707a6.008,6.008,0,0,0-4.148-3.837l-.247-.059a4.377,4.377,0,0,0,.208-.87h0a5.138,5.138,0,0,0-3.219-5.439,5.439,5.439,0,0,0-1.879-4.762,8.33,8.33,0,0,1-.9-.707l-.049-.04a2.3,2.3,0,0,1-.341-.45h0a6.951,6.951,0,0,1-.524-1.152c-.44-1.177-.89-2.354-1.33-3.53-.593-.119-1.053-.366-1.617-.46v-.361a11.729,11.729,0,0,0-.608-3.545,16.366,16.366,0,0,0-1.923-3.817h0c-.124-.2-.252-.391-.386-.583h0c-.168-.262-.351-.494-.529-.771a15.3,15.3,0,0,0-4.584-4.6,17.868,17.868,0,0,0-1.953-.9l-3.461-1.419a1.626,1.626,0,0,0-.618-.168c-.831,0-1.053,1.142-.722,1.928a1.95,1.95,0,0,0,.143.267c1.053,1.543,3.412,1.978,4.069,3.723a2.378,2.378,0,0,0-.9.193,2.62,2.62,0,0,0-1.548,1.721,1.419,1.419,0,0,1-.326.771c-.312.242-.781.1-1.122.292-.613.326-.351,1.241-.415,1.933a8.733,8.733,0,0,1-.628,1.74,3.066,3.066,0,0,0-.074,1.4l.03.148h0a1.7,1.7,0,0,0,.044.218,4.483,4.483,0,0,0,.608,1.365,11.09,11.09,0,0,0,2.255,2.284c.564.465,1.137.935,1.74,1.36.173.119.341.232.494.346a.573.573,0,0,0-.054.094.68.68,0,0,1-.084.213h0a1.088,1.088,0,0,0-.059.613.989.989,0,0,0,.193.406h0a3.7,3.7,0,0,0,.435.445,8.9,8.9,0,0,1,2.71,4.9,3,3,0,0,1-.04,1.108h0a9.106,9.106,0,0,0-.44,2.245,3.522,3.522,0,0,0,.069.554h0a11.736,11.736,0,0,0,.781,2.556c.92,2.334,1.894,4.747,3.728,6.428a20.816,20.816,0,0,0,4.183,10.3,33.033,33.033,0,0,0,7.046,6.176,13.194,13.194,0,0,0,2.6,1.632,14.964,14.964,0,0,0,2.581.7,132.515,132.515,0,0,0,21.583,2.522l.989.035h.049c0,.381.035.761.049,1.142q.252,5.7.232,11.412v1.023a5.732,5.732,0,0,1-.307,2.19,6.342,6.342,0,0,1-1.029,1.483c-.094.119-.2.242-.292.366-1.483,1.978-1.77,4.613-1.721,7.155v.044a10.88,10.88,0,0,0,.04,1.137,77.716,77.716,0,0,0,1.216,10.131c.583,3.174.336,6.6.791,9.81a15.823,15.823,0,0,0,.791,3.224q.9,2.408,1.79,4.811a4.224,4.224,0,0,1,.356,1.419,2.374,2.374,0,0,1-.035.46h0a8.1,8.1,0,0,1-1.182,2.388,8.268,8.268,0,0,0-1.043,4.371v.124h0a.712.712,0,0,0,.119.356c.193.267.6.242.92.193a36.646,36.646,0,0,1,3.881-.361h.138c-.044.054-.094.109-.138.168h0c-.148.2-.3.42-.44.658h0l-.069.119a14.812,14.812,0,0,0-.855,1.75,16.543,16.543,0,0,0-1.137,3.14,2.866,2.866,0,0,0-.114.494c-.079.326-.148.653-.2.989a31.394,31.394,0,0,0-.356,5.142v.712c-.04.766-.079,1.543-.124,2.294a37.285,37.285,0,0,1-.588,6.072,4.994,4.994,0,0,0-.168,1.681v.025a13.777,13.777,0,0,0,.316,2.24c.153.781.356,1.587.559,2.383v.079a8.673,8.673,0,0,0,.059.88v.04a14.518,14.518,0,0,0,.786,3.822s0,.04,0,.059v.588a.669.669,0,0,0,0,.1h0c0,.356.045.717.079,1.073.109,1.043.282,2.082.494,3.12v.173q1.483,8.238,3.016,16.47c.059.331.124.658.188.989q1.661,8.811,3.461,17.6c.1.494.2.989.307,1.483.054.232.1.47.163.7s.138.569.208.85a24.45,24.45,0,0,0,4.5,8.9,40.713,40.713,0,0,1,4.7,7.526.877.877,0,0,1-.054.218h0c-.109.524-.227,1.043-.351,1.562l-.03.119c-1.315,5.582-3.071,11.086-3.679,16.811-.045.41-.079.821-.119,1.236a18.1,18.1,0,0,1-1.088,5.479c-.213.494-.47.964-.692,1.454a5.284,5.284,0,0,0-.529,1.795,1.377,1.377,0,0,0,0,.247.283.283,0,0,0,0,.064.209.209,0,0,0,0,.025h0a3.57,3.57,0,0,0,.495,1.75l-.064.049c-.133.1-.262.2-.386.307l-.247.208c-1.706,1.355-3.99,1.632-6.1,2.181s-4.366,1.661-5.019,3.748c-.04.134-.069.267-.1.405a1.352,1.352,0,0,0-.03.2h0a3.6,3.6,0,0,0-.045.608v.044a.635.635,0,0,0,0,.094,5.632,5.632,0,0,0,2.472,4.129,13.665,13.665,0,0,0,6.032,1.849,20.024,20.024,0,0,1,6.181,1.419c1.642.816,3.031,2.156,4.771,2.744.1.035.208.054.316.084l-.094.054c-.237.143-.494.282-.717.41l-.386.213a18.076,18.076,0,0,1-5.76,1.834c-2.037.282-4.45.415-5.5,2.185h0a.352.352,0,0,0-.04.089h0a1.175,1.175,0,0,0-.114.272v.04a.579.579,0,0,0-.045.119.7.7,0,0,0-.045.133.942.942,0,0,1,0,.114,2.111,2.111,0,0,0-.084.391,3.271,3.271,0,0,0,.035,1.029,4.608,4.608,0,0,0,1.33,2.408,9.607,9.607,0,0,0,4.589,2.027,82.683,82.683,0,0,0,11.422,1.419l3.723.287c1.33.1,2.665.2,4,.3.944.059,1.889.119,2.833.163s1.8.074,2.7.094h1.4q3.461,0,6.878-.292c2.21-.2,4.4-.494,6.571-.88a1.483,1.483,0,0,0,1.068-.494.989.989,0,0,0,.064-.124.427.427,0,0,0,.03-.084.178.178,0,0,0,0-.044.652.652,0,0,0,0-.094,1.278,1.278,0,0,0,0-.143v-.351c0-.47,0-.935-.035-1.4v-.574l-.03-.579c-.035-.564-.069-1.132-.119-1.7l-.059-.672v-.222a3.987,3.987,0,0,0-.049-.495.858.858,0,0,0-.035-.292l-.089-.8c-.069-.583-.148-1.162-.232-1.74q-.272-1.9-.667-3.773v-.064c-.094-.425-.188-.845-.277-1.266-.312-1.335-2.131.494-3.15,1.637-.134-.638-.272-1.271-.44-1.889h0v-.074c.272-.124.539-.252.8-.381a2.848,2.848,0,0,0,1.483-1.226,2.131,2.131,0,0,0,.158-.663,2.886,2.886,0,0,0,0-.415v-.326c-.148-2.937-.326-5.978-1.721-8.554a18.2,18.2,0,0,0-3.4-4.144c0-.316-.035-.633-.049-.949-.148-3.145-.361-6.29-.658-9.429a137.449,137.449,0,0,0-2.626-17.044c-.351-1.518-.707-3.036-1.147-4.534h0a29.667,29.667,0,0,0-3.837-8.569c-.331-.495-.687-.989-1.048-1.483q-.158-2.779-.495-5.568c-.3-2.551-.692-5.093-1.112-7.61-.035-.237-.079-.494-.1-.727v-.04a2.393,2.393,0,0,1,.119-.989,5.85,5.85,0,0,1,.989-1.33,5.622,5.622,0,0,0,1.043-3.461q0-.072,0-.143c0-1.31-.193-2.695-.282-4,0-.366-.035-.727-.035-1.093h0v-.04h0v-.163c0-.381,0-.757.025-1.132a49.748,49.748,0,0,1,1.483-8.663c.707-2.967,1.424-5.889,2.126-8.836h0q.423-1.721.826-3.461c.1-.41.2-.816.3-1.226a21.7,21.7,0,0,1,1.147-3.743,35.868,35.868,0,0,1,2.927-4.722,26.478,26.478,0,0,0,4.129-14.057h0a.085.085,0,0,0,0-.035v-.059a.668.668,0,0,0,0-.1v-.989h0a4.78,4.78,0,0,0-.044-.781c.613.218,1.231.44,1.839.677a10.4,10.4,0,0,0,.079-1.117v-.04c.049-2.289-.45-4.722-.494-7.026a.328.328,0,0,1,0-.069v-.064a12.158,12.158,0,0,1,.153-2.26,9.087,9.087,0,0,1,.252-1.024c.173-.138.346-.277.494-.42h0a14.206,14.206,0,0,0,4.079-5.053c.89-1.978,1.147-4.237,2.077-6.215a19.945,19.945,0,0,0,1.577-3.338,5.349,5.349,0,0,0,.163-1.117v-.059a36.793,36.793,0,0,0-.247-3.728h0v-.6c.049-3.432,2.185-6.646,2.423-9.993v-.045a8.02,8.02,0,0,0-.079-1.681c-.262-1.666-1.147-3.224-1.31-4.885h0a3.965,3.965,0,0,1-.03-.638,9.712,9.712,0,0,1,.776-3c1.726-4.564,3.431-9.365,3.56-14.176a.133.133,0,0,0,0-.044v-.1a17.847,17.847,0,0,0-.3-3.931c-.227-1.261-.6-2.507-.7-3.773a8.1,8.1,0,0,1,0-.989c.079-1.389.588-2.749.722-4.114h0a5.619,5.619,0,0,0,0-1.32,4.163,4.163,0,0,0-.445-1.305h0a4.14,4.14,0,0,0-.376-.593,22.521,22.521,0,0,0,2.012-3.857,7.219,7.219,0,0,0,.495-1.582A3.667,3.667,0,0,0,808.531,309.033ZM774.7,527.2h0l-.049-.03A6.178,6.178,0,0,0,773,526.7c-.138,0-.282-.03-.42-.04h-.03a8.2,8.2,0,0,0,.163-1.4c0-.277,0-.559,0-.841v-.549c0-.277-.025-.559-.044-.836s-.054-.6-.074-.9h0a1.31,1.31,0,0,1,0-.138c.064.188.134.376.213.564q.915,2.383,1.978,4.692Zm11.447-256.8Z" transform="translate(-354.067 -139.944)" fill="url(#linear-gradient-23)"/>
    <path id="Caminho_36" data-name="Caminho 36" d="M834.361,321.57c-.064,2.507-.915,4.945-1.048,7.447,7.417.366,14.68-3.219,21.993-2.121-2.042-1.32-3.135-3.708-3.778-6.057a25.025,25.025,0,0,1-.722-9.306,3.741,3.741,0,0,1,.089-.494c.272-1.226.989-2.967.786-3.931-.247-1.276-1.454-1.024-2.536-.949a96,96,0,0,0-9.859,1.271c-.851.148-9.133,2.215-9.256,2a39.269,39.269,0,0,1,3.585,7.382A14.384,14.384,0,0,1,834.361,321.57Z" transform="translate(-425.1 -170.331)" fill="#ee8e9e"/>
    <path id="Caminho_37" data-name="Caminho 37" d="M690.252,305.8a10.711,10.711,0,0,0,2.26,2.275c.559.46,1.132.93,1.736,1.35a7.417,7.417,0,0,0,3.694,1.483c1.76.119,5.5-.915,6.591-2.423a4.361,4.361,0,0,0,.628-2.522,11.69,11.69,0,0,0-.6-3.53,19.632,19.632,0,0,0-2.853-5.152,15.163,15.163,0,0,0-4.579-4.584,17.757,17.757,0,0,0-1.948-.895l-3.461-1.414a1.737,1.737,0,0,0-.628-.163c-.925,0-1.093,1.419-.569,2.181,1.048,1.538,3.407,1.978,4.069,3.708a2.64,2.64,0,0,0-2.472,1.9,1.355,1.355,0,0,1-.331.771c-.3.242-.776.1-1.122.287-.608.326-.341,1.236-.405,1.928a8.779,8.779,0,0,1-.633,1.731A3.679,3.679,0,0,0,690.252,305.8Z" transform="translate(-354.066 -162.309)" fill="#ee8e9e"/>
    <path id="Caminho_38" data-name="Caminho 38" d="M881.361,818.577a2.621,2.621,0,0,0-2.294-.346,85.242,85.242,0,0,1-12.89,1.043c-.539-2.641,1.028-5.207,1.533-7.852a6.925,6.925,0,0,1,.495-1.978,4.56,4.56,0,0,1,3.263-1.978c2.324-.495,5.933-1.355,7.254.989C880.3,811.279,880.8,815.442,881.361,818.577Z" transform="translate(-443.318 -423.512)" fill="#65617d"/>
    <path id="Caminho_39" data-name="Caminho 39" d="M798.935,797.461a13.6,13.6,0,0,0,6.032,1.839,19.41,19.41,0,0,1,6.181,1.409c1.646.811,3.031,2.146,4.776,2.729a9.9,9.9,0,0,0,4.945.079c1.978-.366,4.045-1.083,5.1-2.774.944-1.483.841-3.407.712-5.177-.153-1.978-.3-4.005-.445-6.008a2.931,2.931,0,0,0-.371-1.454c-1.419-2.062-4.861.865-6.7.86a12.9,12.9,0,0,1-8.159-3.521,2.469,2.469,0,0,0-.633-.494c-.836-.376-1.666.316-2.408.92-.079.069-.163.133-.247.2-1.706,1.355-3.99,1.627-6.1,2.176s-4.366,1.652-5.019,3.728a2.99,2.99,0,0,0-.1.4A5.288,5.288,0,0,0,798.935,797.461Z" transform="translate(-408.118 -412.364)" fill="#3f3d56"/>
    <path id="Caminho_40" data-name="Caminho 40" d="M798.935,797.461a13.6,13.6,0,0,0,6.032,1.839,19.41,19.41,0,0,1,6.181,1.409c1.646.811,3.031,2.146,4.776,2.729a9.9,9.9,0,0,0,4.945.079c1.978-.366,4.045-1.083,5.1-2.774.944-1.483.841-3.407.712-5.177-.153-1.978-.3-4.005-.445-6.008a2.931,2.931,0,0,0-.371-1.454c-1.419-2.062-4.861.865-6.7.86a12.9,12.9,0,0,1-8.159-3.521,2.469,2.469,0,0,0-.633-.494c-.836-.376-1.666.316-2.408.92-.079.069-.163.133-.247.2-1.706,1.355-3.99,1.627-6.1,2.176s-4.366,1.652-5.019,3.728a2.99,2.99,0,0,0-.1.4A5.288,5.288,0,0,0,798.935,797.461Z" transform="translate(-408.118 -412.364)" opacity="0.05"/>
    <path id="Caminho_41" data-name="Caminho 41" d="M798.747,798.118a13.6,13.6,0,0,0,6.032,1.839,19.411,19.411,0,0,1,6.181,1.409c1.646.816,3.031,2.146,4.776,2.729a9.9,9.9,0,0,0,4.944.079,8.188,8.188,0,0,0,5.1-3.461c.944-1.483.841-3.407.712-5.177-.153-1.978-.3-4.005-.445-6.008a2.931,2.931,0,0,0-.371-1.454c-1.419-2.062-4.861.865-6.7.86a12.9,12.9,0,0,1-8.158-3.521,2.471,2.471,0,0,0-.633-.494c-.836-.376-1.666.316-2.408.92a17.307,17.307,0,0,0,2.052,4.233,8.855,8.855,0,0,0,6.428,4.025,20.939,20.939,0,0,1,3.906.173c1.261.336,2.438,1.627,1.978,2.853s-1.978,1.483-3.254,1.528a14.565,14.565,0,0,1-5.305-.371c-1.033-.346-1.978-.915-2.967-1.335-4.277-1.775-9.682-.781-13.217-3.778a7.524,7.524,0,0,0-1.078-.826C795.4,794.3,797.11,797,798.747,798.118Z" transform="translate(-407.929 -412.349)" fill="#e8eaf2"/>
    <path id="Caminho_42" data-name="Caminho 42" d="M798.747,798.118a13.6,13.6,0,0,0,6.032,1.839,19.411,19.411,0,0,1,6.181,1.409c1.646.816,3.031,2.146,4.776,2.729a9.9,9.9,0,0,0,4.944.079,8.188,8.188,0,0,0,5.1-3.461c.944-1.483.841-3.407.712-5.177-.153-1.978-.3-4.005-.445-6.008a2.931,2.931,0,0,0-.371-1.454c-1.419-2.062-4.861.865-6.7.86a12.9,12.9,0,0,1-8.158-3.521,2.471,2.471,0,0,0-.633-.494c-.836-.376-1.666.316-2.408.92a17.307,17.307,0,0,0,2.052,4.233,8.855,8.855,0,0,0,6.428,4.025,20.939,20.939,0,0,1,3.906.173c1.261.336,2.438,1.627,1.978,2.853s-1.978,1.483-3.254,1.528a14.565,14.565,0,0,1-5.305-.371c-1.033-.346-1.978-.915-2.967-1.335-4.277-1.775-9.682-.781-13.217-3.778a7.524,7.524,0,0,0-1.078-.826C795.4,794.3,797.11,797,798.747,798.118Z" transform="translate(-407.929 -412.349)" opacity="0.05"/>
    <path id="Caminho_43" data-name="Caminho 43" d="M845.445,539a26.3,26.3,0,0,1-3.61,19.412,37.59,37.59,0,0,0-2.927,4.7,21.678,21.678,0,0,0-1.147,3.728l-3.244,13.444c-.88,3.629-1.76,7.328-1.483,11.051.183,2.6.836,5.513-.761,7.565a5.565,5.565,0,0,0-.989,1.325,3.387,3.387,0,0,0,0,1.75c1.642,9.761,2.863,19.961-.1,29.405-2.69,8.559-2.848,18.043-5.132,26.7a5.932,5.932,0,0,1-1.424,2.967,4.642,4.642,0,0,1-2.126.989c-3.372.806-6.922-.138-10.077-1.592-2.21-1.024-4.589-2.818-4.4-5.246a10.69,10.69,0,0,1,1.226-3.234,22.279,22.279,0,0,0,1.211-6.675c.608-5.676,2.359-11.15,3.679-16.7s2.22-11.348,1.1-16.945a148.109,148.109,0,0,0-10.878-33.534,3.99,3.99,0,0,0-.989-1.483c-.445-.366-1.033-.534-1.414-.989a4.348,4.348,0,0,1-.643-1.755c-.494-1.77-1.953-3.076-2.932-4.633-2.472-3.926-1.691-8.96-1.6-13.6.089-4.514-.559-9.068.178-13.518s3.288-9,7.58-10.384a16.345,16.345,0,0,1,6.65-.312C822.932,532.61,834.374,534.77,845.445,539Z" transform="translate(-408.197 -284.16)" fill="#303d5c"/>
    <path id="Caminho_44" data-name="Caminho 44" d="M845.445,539a26.3,26.3,0,0,1-3.61,19.412,37.59,37.59,0,0,0-2.927,4.7,21.678,21.678,0,0,0-1.147,3.728l-3.244,13.444c-.88,3.629-1.76,7.328-1.483,11.051.183,2.6.836,5.513-.761,7.565a5.565,5.565,0,0,0-.989,1.325,3.387,3.387,0,0,0,0,1.75c1.642,9.761,2.863,19.961-.1,29.405-2.69,8.559-2.848,18.043-5.132,26.7a5.932,5.932,0,0,1-1.424,2.967,4.642,4.642,0,0,1-2.126.989c-3.372.806-6.922-.138-10.077-1.592-2.21-1.024-4.589-2.818-4.4-5.246a10.69,10.69,0,0,1,1.226-3.234,22.279,22.279,0,0,0,1.211-6.675c.608-5.676,2.359-11.15,3.679-16.7s2.22-11.348,1.1-16.945a148.109,148.109,0,0,0-10.878-33.534,3.99,3.99,0,0,0-.989-1.483c-.445-.366-1.033-.534-1.414-.989a4.348,4.348,0,0,1-.643-1.755c-.494-1.77-1.953-3.076-2.932-4.633-2.472-3.926-1.691-8.96-1.6-13.6.089-4.514-.559-9.068.178-13.518s3.288-9,7.58-10.384a16.345,16.345,0,0,1,6.65-.312C822.932,532.61,834.374,534.77,845.445,539Z" transform="translate(-408.197 -284.16)" opacity="0.05"/>
    <path id="Caminho_45" data-name="Caminho 45" d="M796.537,569.535a28.534,28.534,0,0,0,.593,5.212q3.115,17.479,6.641,34.879c.208.989.41,2.012.682,3a24.382,24.382,0,0,0,4.5,8.851c9.79,12.2,10.636,29.929,15.951,44.649.356.989.717,1.978,1.1,2.967a72.85,72.85,0,0,0,3.278,7.313,2.076,2.076,0,0,0,.672.875,2.022,2.022,0,0,0,1.068.208,31.15,31.15,0,0,0,13.82-3.13,2.873,2.873,0,0,0,1.483-1.216,2.991,2.991,0,0,0,.153-1.4c-.148-2.917-.326-5.933-1.716-8.5a18.243,18.243,0,0,0-3.4-4.124,156.556,156.556,0,0,0-3.333-27.279c-1.033-4.574-2.314-9.2-4.944-13.063-1.978-2.853-4.767-5.667-4.42-9.113.153-1.483.786-3.392-.445-4.282-.539-.391-1.335-.44-1.7-.989a1.875,1.875,0,0,1-.237-.85,21.1,21.1,0,0,1,.435-7.066,38.029,38.029,0,0,0,1.053-4.6,5.8,5.8,0,0,0-1.157-4.45c-.064-3.145,0-6.428-.044-9.543a17.8,17.8,0,0,1,.44-5.33c.242-.826.6-1.612.786-2.472.658-3.016-.989-6.636.989-9.029a13.65,13.65,0,0,1,3.135-2.205,11.507,11.507,0,0,0,4.3-6.186,35.413,35.413,0,0,0,1.221-7.575,7.886,7.886,0,0,0,0-1.637,2.931,2.931,0,0,0-.217-.816c-.608-1.365-2.24-1.894-3.694-2.245a119.371,119.371,0,0,0-28.184-3.293c-3.511-2.393-5.489-1.538-6.977.989a26.308,26.308,0,0,0-1.978,4.851c-.682,2.052-.722,13.553-1.384,15.615C794.085,561.238,796.572,566.717,796.537,569.535Z" transform="translate(-407.292 -286.395)" fill="#303d5c"/>
    <path id="Caminho_46" data-name="Caminho 46" d="M902.753,388.74c.262,1.81-.608,3.59-.707,5.414a20.374,20.374,0,0,0,.717,4.722c1.132,6.131-1.043,12.337-3.263,18.161a9.345,9.345,0,0,0-.771,2.967c-.059,1.9,1.034,3.644,1.335,5.523.628,3.956-2.279,7.659-2.344,11.659,0,1.839.554,3.713.094,5.493A19.236,19.236,0,0,1,896.236,446c-.935,1.978-1.182,4.2-2.077,6.181-1.607,3.59-5.068,5.933-8.356,8.084-1.874-.623-3.9-1.365-4.945-3.051a7.51,7.51,0,0,1-.855-2.675,69.83,69.83,0,0,1-.663-12.411,77.061,77.061,0,0,1,.583-10.641c.663-4.509,2.126-8.856,3.174-13.291,1.325-5.592,1.978-11.372,4.064-16.737a56.67,56.67,0,0,1,7.6-13c1.132-1.548,2.027-3.758,4.228-3.4A4.608,4.608,0,0,1,902.753,388.74Z" transform="translate(-450.025 -210.236)" fill="#009688"/>
    <path id="Caminho_47" data-name="Caminho 47" d="M902.753,388.74c.262,1.81-.608,3.59-.707,5.414a20.374,20.374,0,0,0,.717,4.722c1.132,6.131-1.043,12.337-3.263,18.161a9.345,9.345,0,0,0-.771,2.967c-.059,1.9,1.034,3.644,1.335,5.523.628,3.956-2.279,7.659-2.344,11.659,0,1.839.554,3.713.094,5.493A19.236,19.236,0,0,1,896.236,446c-.935,1.978-1.182,4.2-2.077,6.181-1.607,3.59-5.068,5.933-8.356,8.084-1.874-.623-3.9-1.365-4.945-3.051a7.51,7.51,0,0,1-.855-2.675,69.83,69.83,0,0,1-.663-12.411,77.061,77.061,0,0,1,.583-10.641c.663-4.509,2.126-8.856,3.174-13.291,1.325-5.592,1.978-11.372,4.064-16.737a56.67,56.67,0,0,1,7.6-13c1.132-1.548,2.027-3.758,4.228-3.4A4.608,4.608,0,0,1,902.753,388.74Z" transform="translate(-450.025 -210.236)" opacity="0.05"/>
    <path id="Caminho_48" data-name="Caminho 48" d="M830,309.391a39.271,39.271,0,0,1,3.585,7.382,17.012,17.012,0,0,0,4.069.494c5.325,0,9.1-3.031,12.228-6.858.272-1.231,1.978-2.373,1.77-3.343-.247-1.276-1.454-1.024-2.537-.949a96,96,0,0,0-9.859,1.271C838.406,307.537,830.138,309.6,830,309.391Z" transform="translate(-425.085 -170.311)" opacity="0.1"/>
    <circle id="Elipse_7" data-name="Elipse 7" cx="17.064" cy="17.064" r="17.064" transform="translate(395.52 112.365)" fill="#ee8e9e"/>
    <path id="Caminho_49" data-name="Caminho 49" d="M801.9,538.1c2.967-.173,5.933-.054,8.9.064a29.94,29.94,0,0,1,5.518.569c2.24.494,4.336,1.528,6.547,2.166,3.54,1.033,7.278,1.078,10.942,1.439a62.572,62.572,0,0,1,7.165,1.122,2.937,2.937,0,0,0-.218-.816c-.608-1.365-2.24-1.894-3.694-2.245a119.364,119.364,0,0,0-28.184-3.293C805.366,534.711,803.388,535.567,801.9,538.1Z" transform="translate(-410.879 -286.406)" opacity="0.1"/>
    <path id="Caminho_50" data-name="Caminho 50" d="M806.276,344.775c.747.86,1.745,1.81,2.848,1.533a4,4,0,0,0,1.108-.593c1.978-1.271,4.381-1.567,6.695-1.914a98.9,98.9,0,0,0,13.79-3.1,14.031,14.031,0,0,1,4.079-.831c2.893,0,5.439,1.938,7.269,4.193s3.1,4.89,4.875,7.17c1.266,1.627,2.774,3.061,3.956,4.747,2.967,4.257,3.629,9.815,2.858,14.962s-2.828,9.993-4.865,14.784a52.587,52.587,0,0,1-3.956,8.005A18.982,18.982,0,0,1,843.4,405.6a11.586,11.586,0,0,0-1.548,3.535,8.776,8.776,0,0,0,.1,2.591l.87,6.176c.262,1.884.529,3.763.87,5.632.628,3.422,1.483,7.135-.1,10.23-1.9,3.7.094,8.455-.405,12.589a63.323,63.323,0,0,0-16.629-3.956c-3.669-.361-7.417-.405-10.942-1.434-2.21-.643-4.3-1.661-6.547-2.176a30.326,30.326,0,0,0-5.523-.564,65.4,65.4,0,0,0-12.253.277c-.331.049-.727.074-.925-.193a.885.885,0,0,1-.124-.494,8.134,8.134,0,0,1,1.048-4.341c.494-.91,1.231-1.8,1.211-2.848a4.283,4.283,0,0,0-.356-1.414l-1.79-4.786c-1.518-4.035-.8-8.727-1.582-12.965a76.149,76.149,0,0,1-1.177-10.032c-.148-2.878-.054-6,1.681-8.3a9.4,9.4,0,0,0,1.31-1.825,5.484,5.484,0,0,0,.311-2.181q.059-8.633-.494-17.261c1.518-2.72,3.1-5.5,4.608-8.223,1.76-3.165,3.55-6.393,4.262-9.943.495-2.354.455-4.772.791-7.145a3.09,3.09,0,0,1,.6-1.671,3.05,3.05,0,0,1,2.428-.722,10.652,10.652,0,0,1,3.174.618Z" transform="translate(-403.626 -187.41)" fill="#009688"/>
    <path id="Caminho_51" data-name="Caminho 51" d="M699.07,325.261a7.417,7.417,0,0,0,3.694,1.483c1.76.119,5.5-.915,6.591-2.423a4.362,4.362,0,0,0,.628-2.522,3.053,3.053,0,0,0-.732-.143,19.133,19.133,0,0,0-5.726.232,6.478,6.478,0,0,0-4.45,3.338Z" transform="translate(-358.894 -178.151)" opacity="0.1"/>
    <path id="Caminho_52" data-name="Caminho 52" d="M756.171,362.65a12.084,12.084,0,0,1-3.595,3.387,11.551,11.551,0,0,1-5.6.86,133.966,133.966,0,0,1-23.413-2.571,14.462,14.462,0,0,1-2.576-.692,13.722,13.722,0,0,1-2.606-1.622,33.387,33.387,0,0,1-7.046-6.146,20.683,20.683,0,0,1-4.173-10.24c-1.839-1.691-2.814-4.1-3.733-6.428a9.931,9.931,0,0,1-.851-3.12c-.049-1.1.682-2.26.495-3.347a8.85,8.85,0,0,0-2.7-4.87,1.765,1.765,0,0,1-.648-.855,1.385,1.385,0,0,1,.158-.836,6.436,6.436,0,0,1,4.45-3.338,19.146,19.146,0,0,1,5.726-.227,14.725,14.725,0,0,1,1.874.494l1.335,3.516a4.561,4.561,0,0,0,.875,1.6,8.662,8.662,0,0,0,.944.742,5.439,5.439,0,0,1,1.879,4.737,5.088,5.088,0,0,1,3.011,6.28,6,6,0,0,1,4.4,3.877,2.908,2.908,0,0,0,.574,1.206,2.354,2.354,0,0,0,1.538.494c1.483.094,2.823,1.281,4.193.638a8.5,8.5,0,0,1,4.959-.7,3.671,3.671,0,0,0,1.063.094,2.888,2.888,0,0,0,.87-.3,7.145,7.145,0,0,1,1.978-.781,1.849,1.849,0,0,1,1.874.727c.495-.524.766-1.2,1.2-1.755a1.918,1.918,0,0,1,1.82-.87c-.455-.405,0-1.211.6-1.36a7.5,7.5,0,0,1,1.82.069c1.577,0,2.789-1.444,4.322-1.82,1.409-.341,3.288.069,4.01-1.192.257-.445.307-1.048.742-1.32a1.419,1.419,0,0,1,.949-.114,9.361,9.361,0,0,1,2.883.875c1.483,5.78.7,11.783-.425,17.642A15.638,15.638,0,0,1,756.171,362.65Z" transform="translate(-359.217 -178.629)" fill="#009688"/>
    <path id="Caminho_53" data-name="Caminho 53" d="M812.236,443.6l7.348,14.834c-.8-1.37-2.472-1.9-3.792-2.779a10.048,10.048,0,0,1-3.624-4.87,29.905,29.905,0,0,1-1.414-6.022c-.148-.939-.46-2.26,0-3.11C811.608,441.823,811.885,442.9,812.236,443.6Z" transform="translate(-415.233 -238.864)" opacity="0.1"/>
    <path id="Caminho_54" data-name="Caminho 54" d="M853.629,468.063a64.867,64.867,0,0,0,5.513,4.3c4.262,3.392,7.3,8.05,10.265,12.618a19.976,19.976,0,0,1,2.1,3.847c-.346.3-.865,0-1.206-.312l-5.775-5.073A13.024,13.024,0,0,1,862.6,481.5c-.989-1.345-1.444-3.031-2.354-4.45a17.526,17.526,0,0,0-3.506-3.575c-1.271-1.1-7.417-6.285-5.933-8.282C851.878,465.724,852.763,467.207,853.629,468.063Z" transform="translate(-435.487 -250.764)" opacity="0.1"/>
    <path id="Caminho_55" data-name="Caminho 55" d="M827.881,337.624a17.266,17.266,0,0,1,6.107-2.012,12.857,12.857,0,0,1,3.886-.277c1.2.148,2.354.613,3.565.677,1.7.1,3.323-.593,4.945-1.038s3.535-.623,4.915.371a2.132,2.132,0,0,0,1.068.569,1.859,1.859,0,0,0,1.1-.544,6.3,6.3,0,0,1,7.847.415c3.13,2.932,2.779,8.663,6.428,10.878,1.014.613,2.3.939,2.893,1.978a6.873,6.873,0,0,0,.495.944,2.541,2.541,0,0,0,.88.628,17.268,17.268,0,0,1,3.026,1.736,4.332,4.332,0,0,1,1.741,2.917,5.439,5.439,0,0,1-.539,2.472,23,23,0,0,1-22.359,14.3,3.551,3.551,0,0,1-2.344-.732,4.408,4.408,0,0,1-.821-1.35c-1.721-3.614-4.945-6.285-7.016-9.721-1.226-2.047-2.012-4.336-3.288-6.354-1.9-3.066-4.841-5.345-7.709-7.516-1.622-1.236-3.427-2.532-5.469-2.448-1.815.079-3.14.178-2.472-2.052A7.125,7.125,0,0,1,827.881,337.624Z" transform="translate(-422.348 -184.54)" fill="#009688"/>
    <path id="Caminho_56" data-name="Caminho 56" d="M827.881,337.624a17.266,17.266,0,0,1,6.107-2.012,12.857,12.857,0,0,1,3.886-.277c1.2.148,2.354.613,3.565.677,1.7.1,3.323-.593,4.945-1.038s3.535-.623,4.915.371a2.132,2.132,0,0,0,1.068.569,1.859,1.859,0,0,0,1.1-.544,6.3,6.3,0,0,1,7.847.415c3.13,2.932,2.779,8.663,6.428,10.878,1.014.613,2.3.939,2.893,1.978a6.873,6.873,0,0,0,.495.944,2.541,2.541,0,0,0,.88.628,17.268,17.268,0,0,1,3.026,1.736,4.332,4.332,0,0,1,1.741,2.917,5.439,5.439,0,0,1-.539,2.472,23,23,0,0,1-22.359,14.3,3.551,3.551,0,0,1-2.344-.732,4.408,4.408,0,0,1-.821-1.35c-1.721-3.614-4.945-6.285-7.016-9.721-1.226-2.047-2.012-4.336-3.288-6.354-1.9-3.066-4.841-5.345-7.709-7.516-1.622-1.236-3.427-2.532-5.469-2.448-1.815.079-3.14.178-2.472-2.052A7.125,7.125,0,0,1,827.881,337.624Z" transform="translate(-422.348 -184.54)" opacity="0.05"/>
    <path id="Caminho_57" data-name="Caminho 57" d="M811.867,827.4a9.566,9.566,0,0,0,4.584,2.017,83.448,83.448,0,0,0,11.417,1.409l3.728.287c3.639.272,7.283.554,10.937.569a75.239,75.239,0,0,0,13.449-1.162,1.137,1.137,0,0,0,1.231-1.365,64.985,64.985,0,0,0-1.651-13.5c-.425-1.82-3.689,2.26-3.832,2.433a3.776,3.776,0,0,1-2.967,1.572c-3.753.208-7.961-2.077-10.942-4.1a13.671,13.671,0,0,0-2.027-1.256,5.841,5.841,0,0,0-1.637-.495,9.914,9.914,0,0,0-5.587,1.132c-2.24,1.112-4.208,2.71-6.428,3.852a17.937,17.937,0,0,1-5.76,1.824c-2.032.282-4.45.415-5.5,2.176A3.9,3.9,0,0,0,811.867,827.4Z" transform="translate(-415.215 -426.985)" fill="#3f3d56"/>
    <path id="Caminho_58" data-name="Caminho 58" d="M811.6,828.14a9.566,9.566,0,0,0,4.584,2.017,83.437,83.437,0,0,0,11.417,1.409l3.728.287c3.639.272,7.283.554,10.937.569a75.246,75.246,0,0,0,13.449-1.162,1.483,1.483,0,0,0,1.068-.494,6.125,6.125,0,0,0,.831-1.523c-.074-4.544-1.305-9.078-2.324-13.5-.425-1.82-3.689,2.26-3.832,2.433a3.776,3.776,0,0,1-2.967,1.572c-3.753.208-7.961-2.077-10.942-4.1a13.675,13.675,0,0,0-2.027-1.256,5.838,5.838,0,0,0-1.637-.494c.495,2.7,4.356,5.963,6.354,6.957,4.045,2.007,8.851.989,13.35,1.241a1.834,1.834,0,0,1,.944.232c.544.356.574,1.122.559,1.77-.04,1.078-.178,2.339-1.108,2.888a3.154,3.154,0,0,1-1.483.312,211.406,211.406,0,0,1-33.326-1.167,18.42,18.42,0,0,1-5.439-1.206,13.918,13.918,0,0,1-3.15-2.027C809.186,824.011,810.373,826.988,811.6,828.14Z" transform="translate(-414.951 -427.048)" fill="#e8eaf2"/>
    <path id="Caminho_59" data-name="Caminho 59" d="M826.7,274.522c.064,1.765-1.137,5.187,2.161,4.233,1.978-.574,2.522-2.9,5.019-2.383s3.071,3.595,3.916,5.607a10.725,10.725,0,0,0,7.773,6.285,4.672,4.672,0,0,0,2.141,0c1.612-.46,2.532-2.121,3.189-3.659a29.259,29.259,0,0,0,1.409-4.015,17.09,17.09,0,0,0,.494-2.967h0a13.352,13.352,0,0,0,0-2.037c-.3-4.01-2.581-7.669-5.508-10.438a49.3,49.3,0,0,0-9.978-6.734,14.528,14.528,0,0,0-3.684-1.642,12.331,12.331,0,0,0-3.886-.158,13.409,13.409,0,0,0-4.945,1.162,7,7,0,0,0-1.74,1.221,5.212,5.212,0,0,0-1.483,2.517c-.633,2.6,1.018,4.945,2.363,6.977C825.133,270.319,826.611,272.252,826.7,274.522Z" transform="translate(-420.757 -145.276)" fill="#3f3d56"/>
    <path id="Caminho_60" data-name="Caminho 60" d="M719.77,360.941c.707-1.775,3.674-6.69,2.813-8.381a22.346,22.346,0,0,0-2.255,4.03C719.77,357.964,720.225,359.809,719.77,360.941Z" transform="translate(-369.359 -193.825)" opacity="0.1"/>
    <path id="Caminho_61" data-name="Caminho 61" d="M823.786,270.67c-1.345-2.052-3-4.386-2.368-6.977a5.493,5.493,0,0,1,1.919-2.873,4.778,4.778,0,0,0-.495,1.211c-.633,2.591,1.024,4.945,2.368,6.977,1.192,1.82,2.67,3.753,2.759,6.022.064,1.76-1.142,5.187,2.161,4.233,1.978-.569,2.522-2.9,5.019-2.378s3.066,3.59,3.911,5.6a10.744,10.744,0,0,0,7.793,6.285,4.672,4.672,0,0,0,2.141,0,3.2,3.2,0,0,0,.989-.494,4.341,4.341,0,0,1-2.443,2.156,4.672,4.672,0,0,1-2.141,0,10.744,10.744,0,0,1-7.763-6.285c-.846-2.012-1.394-5.078-3.911-5.607s-3.051,1.815-5.019,2.383c-3.3.954-2.1-2.472-2.161-4.233C826.461,274.423,824.978,272.489,823.786,270.67Z" transform="translate(-420.676 -147.446)" opacity="0.1"/>
    <path id="Caminho_62" data-name="Caminho 62" d="M823.755,264.994a15.415,15.415,0,0,0,.989,1.444,17.69,17.69,0,0,0,2.334,2.418,18.28,18.28,0,0,0,1.577,1.236,25.318,25.318,0,0,0,3.184,1.9,58.476,58.476,0,0,0,10.2,3.649l6.814,1.978c.836.633,2.368,1.775,4.059,2.967a17.084,17.084,0,0,0,.495-2.967h0a13.352,13.352,0,0,0,0-2.037c-.3-4.01-2.581-7.669-5.508-10.438a49.3,49.3,0,0,0-9.978-6.734,14.528,14.528,0,0,0-3.684-1.642,12.331,12.331,0,0,0-3.886-.158,13.41,13.41,0,0,0-4.945,1.162,7,7,0,0,0-1.74,1.221,6.5,6.5,0,0,0-.875,1.849A5.456,5.456,0,0,0,823.755,264.994Z" transform="translate(-421.377 -145.276)" opacity="0.1"/>
    <path id="Caminho_63" data-name="Caminho 63" d="M823.77,260.764a15.4,15.4,0,0,0,.989,1.444,17.684,17.684,0,0,0,2.334,2.418,18.286,18.286,0,0,0,1.577,1.236,25.322,25.322,0,0,0,3.184,1.9,58.9,58.9,0,0,0,10.2,3.654l6.814,1.978c2.378,1.8,10.334,7.694,11.674,6.957,1.577-.865-7.061-6.982-7.061-6.982l-.4.3c1.266-.8,1.928-2.64,2.215-4.232a21.449,21.449,0,0,0,.064-8.638,10.247,10.247,0,0,0-4.945-6.823c-1.147-.588-2.537-.989-3.362-1.894a2.421,2.421,0,0,1-.326-.44,2.143,2.143,0,0,1-.129-.232,3.032,3.032,0,0,0-.361-.7c-.494-.549-1.335-.386-2.052-.3l-.227.025h-.386c-2.561.059-5.043-1.37-7.634-1.37-2.843,0-5.256,1.642-7.758,2.764-.495.227-.989.435-1.434.648a6.2,6.2,0,0,0-3.911,4.129A5.322,5.322,0,0,0,823.77,260.764Z" transform="translate(-421.391 -141.506)" fill="#009688"/>
    <path id="Caminho_64" data-name="Caminho 64" d="M864.778,251.819a1.162,1.162,0,0,0,.267,1.483,2.121,2.121,0,0,0,1.078.386,7.826,7.826,0,0,0,.836.064,2.3,2.3,0,0,0,1.108-.193.994.994,0,0,0,.193-.124,2.414,2.414,0,0,1-.326-.44c-.064.049-.129.04-.386,0a5.933,5.933,0,0,1-1.379-.237,1.354,1.354,0,0,1-.989-.989Z" transform="translate(-442.587 -142.871)" opacity="0.1"/>
    <path id="Caminho_65" data-name="Caminho 65" d="M880.222,298.04a3.164,3.164,0,0,1-1.177.44,4.768,4.768,0,0,1-.915.148A5.068,5.068,0,0,1,875.9,298Z" transform="translate(-448.29 -166.242)" opacity="0.1"/>
    <path id="Caminho_66" data-name="Caminho 66" d="M434.784,316.32l-.643-1.414-.257.069.672,1.409,4.846,10.211a6.234,6.234,0,0,0-1.483,3.461,2.331,2.331,0,0,0,.124.737c.247.722.554,1.014.831,1.093v-.124a3.04,3.04,0,0,1,0-.494v-.218a.483.483,0,0,1,0-.084v-.035h0a.862.862,0,0,0,.025-.109h0a.11.11,0,0,1,0-.04v-.049l.059-.213.025-.059.03-.109c.025-.069.049-.143.079-.213a.582.582,0,0,1,.04-.1l.059-.138c.059-.138.129-.272.193-.405a4.077,4.077,0,0,1,.2-.361,8.623,8.623,0,0,1,.653-.939Zm5.39,17.108h-.03a.613.613,0,0,1-.3,0h-.049a.633.633,0,0,1-.089-.03.7.7,0,0,1-.2-.124l-.074-.069a1.851,1.851,0,0,1-.356-.564,1.814,1.814,0,0,0-.109.579.925.925,0,0,0,.45.865,1.68,1.68,0,0,1,.47.465h0a.034.034,0,0,0,0-.03h0a.147.147,0,0,1,0-.045.085.085,0,0,1,0-.035,2.7,2.7,0,0,1,.213-.588c.049-.094.094-.183.148-.267a.839.839,0,0,1,.064-.114l.044-.069.074-.119A.882.882,0,0,1,440.173,333.428Zm0,0h-.03a.613.613,0,0,1-.3,0h-.049a.633.633,0,0,1-.089-.03.7.7,0,0,1-.2-.124l-.074-.069a1.851,1.851,0,0,1-.356-.564,1.814,1.814,0,0,0-.109.579.925.925,0,0,0,.45.865,1.68,1.68,0,0,1,.47.465h0a.034.034,0,0,0,0-.03h0a.147.147,0,0,1,0-.045.085.085,0,0,1,0-.035,2.7,2.7,0,0,1,.213-.588c.049-.094.094-.183.148-.267a.839.839,0,0,1,.064-.114l.044-.069.074-.119A.882.882,0,0,1,440.173,333.428Zm-5.39-17.108-.643-1.414-.257.069.672,1.409,4.846,10.211a6.234,6.234,0,0,0-1.483,3.461,2.331,2.331,0,0,0,.124.737c.247.722.554,1.014.831,1.093v-.124a3.04,3.04,0,0,1,0-.494.261.261,0,0,1,0-.064s0-.044,0-.069h0a.11.11,0,0,0,0-.04h0v-.025a.124.124,0,0,1,0-.04h0a.275.275,0,0,1,0-.059h0a.763.763,0,0,1,.025-.114.11.11,0,0,1,0-.04v-.049l.059-.213.025-.059.03-.109c.025-.069.049-.143.079-.213a.585.585,0,0,1,.04-.1l.059-.138c.059-.138.129-.272.193-.405a4.086,4.086,0,0,1,.2-.361,8.632,8.632,0,0,1,.653-.939Zm5.39,17.108h-.03a.613.613,0,0,1-.3,0h-.049a.633.633,0,0,1-.089-.03.7.7,0,0,1-.2-.124l-.074-.069a1.851,1.851,0,0,1-.356-.564,1.814,1.814,0,0,0-.109.579.925.925,0,0,0,.45.865,1.68,1.68,0,0,1,.47.465h0a.034.034,0,0,0,0-.03h0a.147.147,0,0,1,0-.045.085.085,0,0,1,0-.035,2.7,2.7,0,0,1,.213-.588l.1-.2.044-.064a.839.839,0,0,1,.064-.114l.044-.069.074-.119A.882.882,0,0,1,440.173,333.428Zm-5.39-17.108-.643-1.414-.257.069.672,1.409,4.846,10.211a6.234,6.234,0,0,0-1.483,3.461,2.331,2.331,0,0,0,.124.737c.247.722.554,1.014.831,1.093v-.124a3.04,3.04,0,0,1,0-.494.261.261,0,0,1,0-.064s0-.044,0-.069h0a.11.11,0,0,0,0-.04h0a.125.125,0,0,1,0-.04h0a.276.276,0,0,1,0-.059h0a.762.762,0,0,1,.025-.114.111.111,0,0,1,0-.04v-.049l.059-.213.025-.059.03-.109c.025-.069.049-.143.079-.213a.583.583,0,0,1,.04-.1l.059-.138c.059-.138.129-.272.193-.405a4.081,4.081,0,0,1,.2-.361,8.629,8.629,0,0,1,.653-.939Zm5.39,17.108h-.03a.613.613,0,0,1-.3,0h-.049a.633.633,0,0,1-.089-.03.7.7,0,0,1-.2-.124l-.074-.069a1.851,1.851,0,0,1-.356-.564,1.814,1.814,0,0,0-.109.579.925.925,0,0,0,.45.865,1.68,1.68,0,0,1,.47.465h0a.034.034,0,0,0,0-.03h0a.127.127,0,0,1,0-.04.119.119,0,0,1,0-.04,2.7,2.7,0,0,1,.213-.588l.1-.2.044-.064a.848.848,0,0,1,.064-.114l.044-.069.074-.119A.881.881,0,0,1,440.173,333.428Zm-5.39-17.108-.643-1.414-.257.069.672,1.409,4.846,10.211a6.234,6.234,0,0,0-1.483,3.461,2.331,2.331,0,0,0,.124.737c.247.722.554,1.014.831,1.093v-.124a3.04,3.04,0,0,1,0-.494.261.261,0,0,1,0-.064s0-.044,0-.069h0a.11.11,0,0,0,0-.04h0a.125.125,0,0,1,0-.04h0a.276.276,0,0,1,0-.059h0a.762.762,0,0,1,.025-.114.111.111,0,0,1,0-.04v-.049l.059-.213.025-.059.03-.109c.025-.069.049-.143.079-.213a.583.583,0,0,1,.04-.1l.059-.138c.059-.138.129-.272.193-.405a4.081,4.081,0,0,1,.2-.361,8.629,8.629,0,0,1,.653-.939Zm5.39,17.108h-.03a.613.613,0,0,1-.3,0h-.049a.633.633,0,0,1-.089-.03.7.7,0,0,1-.2-.124l-.074-.069a1.851,1.851,0,0,1-.356-.564,1.814,1.814,0,0,0-.109.579.925.925,0,0,0,.45.865,1.68,1.68,0,0,1,.47.465h0a.034.034,0,0,0,0-.03h0a.127.127,0,0,1,0-.04.119.119,0,0,1,0-.04,2.7,2.7,0,0,1,.213-.588l.1-.2.044-.064a.848.848,0,0,1,.064-.114l.044-.069.074-.119A.881.881,0,0,1,440.173,333.428Zm-5.39-17.108-.643-1.414-.257.069.672,1.409,4.846,10.211a6.234,6.234,0,0,0-1.483,3.461,2.331,2.331,0,0,0,.124.737c.247.722.554,1.014.831,1.093v-.124a3.04,3.04,0,0,1,0-.494.261.261,0,0,1,0-.064s0-.044,0-.069h0a.11.11,0,0,0,0-.04h0a.125.125,0,0,1,0-.04h0a.276.276,0,0,1,0-.059h0a.762.762,0,0,1,.025-.114.111.111,0,0,1,0-.04v-.049l.059-.213.025-.059.03-.109c.025-.069.049-.143.079-.213a.583.583,0,0,1,.04-.1l.059-.138c.059-.138.129-.272.193-.405a4.081,4.081,0,0,1,.2-.361,8.629,8.629,0,0,1,.653-.939Zm5.39,17.108h-.03a.613.613,0,0,1-.3,0h-.049a.633.633,0,0,1-.089-.03.7.7,0,0,1-.2-.124l-.074-.069a1.851,1.851,0,0,1-.356-.564,1.814,1.814,0,0,0-.109.579.925.925,0,0,0,.45.865,1.68,1.68,0,0,1,.47.465h0a.034.034,0,0,0,0-.03h0a.127.127,0,0,1,0-.04.119.119,0,0,1,0-.04,2.7,2.7,0,0,1,.213-.588l.1-.2.044-.064a.848.848,0,0,1,.064-.114l.044-.069.074-.119A.881.881,0,0,1,440.173,333.428Zm-5.39-17.108-.643-1.414-.257.069.672,1.409,4.846,10.211a6.234,6.234,0,0,0-1.483,3.461,2.331,2.331,0,0,0,.124.737c.247.722.554,1.014.831,1.093v-.124a3.04,3.04,0,0,1,0-.494.261.261,0,0,1,0-.064s0-.044,0-.069h0a.11.11,0,0,0,0-.04h0a.125.125,0,0,1,0-.04h0a.276.276,0,0,1,0-.059h0a.762.762,0,0,1,.025-.114.111.111,0,0,1,0-.04v-.049l.059-.213.025-.059.03-.109c.025-.069.049-.143.079-.213a.583.583,0,0,1,.04-.1l.059-.138c.059-.138.129-.272.193-.405a4.081,4.081,0,0,1,.2-.361,8.629,8.629,0,0,1,.653-.939Zm5.39,17.108h-.03a.613.613,0,0,1-.3,0h-.049a.633.633,0,0,1-.089-.03.7.7,0,0,1-.2-.124l-.074-.069a1.851,1.851,0,0,1-.356-.564,1.814,1.814,0,0,0-.109.579.925.925,0,0,0,.45.865,1.68,1.68,0,0,1,.47.465h0a.034.034,0,0,0,0-.03h0a.127.127,0,0,1,0-.04.119.119,0,0,1,0-.04,2.7,2.7,0,0,1,.213-.588l.1-.2.044-.064a.848.848,0,0,1,.064-.114l.044-.069.074-.119A.881.881,0,0,1,440.173,333.428Zm-5.39-17.108-.643-1.414-.257.069.672,1.409,4.846,10.211a6.234,6.234,0,0,0-1.483,3.461,2.331,2.331,0,0,0,.124.737c.247.722.554,1.014.831,1.093v-.124a3.04,3.04,0,0,1,0-.494.261.261,0,0,1,0-.064s0-.044,0-.069h0a.11.11,0,0,0,0-.04h0a.125.125,0,0,1,0-.04h0a.276.276,0,0,1,0-.059h0a.762.762,0,0,1,.025-.114.111.111,0,0,1,0-.04v-.049l.059-.213.025-.059.03-.109c.025-.069.049-.143.079-.213a.583.583,0,0,1,.04-.1l.059-.138c.059-.138.129-.272.193-.405a4.081,4.081,0,0,1,.2-.361,8.629,8.629,0,0,1,.653-.939Zm5.39,17.108h-.03a.613.613,0,0,1-.3,0h-.049a.633.633,0,0,1-.089-.03.7.7,0,0,1-.2-.124l-.074-.069a1.851,1.851,0,0,1-.356-.564,1.814,1.814,0,0,0-.109.579.925.925,0,0,0,.45.865,1.68,1.68,0,0,1,.47.465h0a.034.034,0,0,0,0-.03h0a.127.127,0,0,1,0-.04.119.119,0,0,1,0-.04,2.7,2.7,0,0,1,.213-.588l.1-.2.044-.064a.848.848,0,0,1,.064-.114l.044-.069.074-.119A.881.881,0,0,1,440.173,333.428Zm-5.39-17.108-.643-1.414-.257.069.672,1.409,4.846,10.211a6.234,6.234,0,0,0-1.483,3.461,2.331,2.331,0,0,0,.124.737c.247.722.554,1.014.831,1.093v-.124a3.04,3.04,0,0,1,0-.494.261.261,0,0,1,0-.064s0-.044,0-.069h0a.11.11,0,0,0,0-.04h0a.125.125,0,0,1,0-.04h0a.276.276,0,0,1,0-.059h0a.762.762,0,0,1,.025-.114.111.111,0,0,1,0-.04v-.049l.059-.213.025-.059.03-.109c.025-.069.049-.143.079-.213a.583.583,0,0,1,.04-.1l.059-.138c.059-.138.129-.272.193-.405a4.081,4.081,0,0,1,.2-.361,8.629,8.629,0,0,1,.653-.939Zm5.39,17.108h-.03a.613.613,0,0,1-.3,0h-.049a.633.633,0,0,1-.089-.03.7.7,0,0,1-.2-.124l-.074-.069a1.851,1.851,0,0,1-.356-.564,1.814,1.814,0,0,0-.109.579.925.925,0,0,0,.45.865,1.68,1.68,0,0,1,.47.465h0a.034.034,0,0,0,0-.03h0a.127.127,0,0,1,0-.04.119.119,0,0,1,0-.04,2.7,2.7,0,0,1,.213-.588l.1-.2.044-.064a.848.848,0,0,1,.064-.114l.044-.069.074-.119A.881.881,0,0,1,440.173,333.428Zm-5.39-17.108-.643-1.414-.257.069.672,1.409,4.846,10.211a6.234,6.234,0,0,0-1.483,3.461,2.331,2.331,0,0,0,.124.737c.247.722.554,1.014.831,1.093v-.124a3.04,3.04,0,0,1,0-.494.261.261,0,0,1,0-.064s0-.044,0-.069h0a.11.11,0,0,0,0-.04h0a.125.125,0,0,1,0-.04h0a.276.276,0,0,1,0-.059h0a.762.762,0,0,1,.025-.114.111.111,0,0,1,0-.04v-.049l.059-.213.025-.059.03-.109c.025-.069.049-.143.079-.213a.583.583,0,0,1,.04-.1l.059-.138c.059-.138.129-.272.193-.405a4.081,4.081,0,0,1,.2-.361,8.629,8.629,0,0,1,.653-.939Zm5.39,17.108h-.03a.613.613,0,0,1-.3,0h-.049a.633.633,0,0,1-.089-.03.7.7,0,0,1-.2-.124l-.074-.069a1.851,1.851,0,0,1-.356-.564,1.814,1.814,0,0,0-.109.579.925.925,0,0,0,.45.865,1.68,1.68,0,0,1,.47.465h0a.034.034,0,0,0,0-.03h0a.127.127,0,0,1,0-.04.119.119,0,0,1,0-.04,2.7,2.7,0,0,1,.213-.588l.1-.2.044-.064a.848.848,0,0,1,.064-.114l.044-.069.074-.119A.881.881,0,0,1,440.173,333.428Zm-5.39-17.108-.643-1.414-.257.069.672,1.409,4.846,10.211a6.234,6.234,0,0,0-1.483,3.461,2.331,2.331,0,0,0,.124.737c.247.722.554,1.014.831,1.093v-.124a3.04,3.04,0,0,1,0-.494.261.261,0,0,1,0-.064s0-.044,0-.069h0a.11.11,0,0,0,0-.04h0v-.025a.124.124,0,0,1,0-.04h0a.275.275,0,0,1,0-.059h0a.763.763,0,0,1,.025-.114.11.11,0,0,1,0-.04v-.049l.059-.213.025-.059.03-.109c.025-.069.049-.143.079-.213a.585.585,0,0,1,.04-.1l.059-.138c.059-.138.129-.272.193-.405a4.086,4.086,0,0,1,.2-.361,8.632,8.632,0,0,1,.653-.939Zm5.39,17.108h-.03a.613.613,0,0,1-.3,0h-.049a.318.318,0,0,1-.089-.03.7.7,0,0,1-.2-.124l-.074-.069a1.851,1.851,0,0,1-.356-.564,1.814,1.814,0,0,0-.109.579.925.925,0,0,0,.45.865,1.68,1.68,0,0,1,.47.465h0a.2.2,0,0,1,0-.079.119.119,0,0,1,0-.04,2.7,2.7,0,0,1,.213-.588l.1-.2.109-.178.044-.069.074-.119a.881.881,0,0,1-.252.153Zm-1.088-3.071c.025-.069.049-.143.079-.213s.025-.069.039-.1a.69.69,0,0,1,.059-.138c.059-.138.129-.272.193-.405a4.077,4.077,0,0,1,.2-.361,8.638,8.638,0,0,1,.653-.939l-5.5-11.867-.668-1.429-.257.069.672,1.409,4.846,10.211a6.234,6.234,0,0,0-1.483,3.461,2.331,2.331,0,0,0,.124.737c.247.722.554,1.014.831,1.093v-.124a3.04,3.04,0,0,1,0-.494.305.305,0,0,1,0-.064v-.069a1.057,1.057,0,0,1,0-.124h0l.03-.148v-.124l.059-.213A.979.979,0,0,0,439.085,330.357Zm74.421-69.308a4.183,4.183,0,0,0-2.354-1.508,3.53,3.53,0,0,0-2.7.623c.222-.242,1.449-1.577,2.472-2.9,1.216-1.548,2.181-3.08.989-2.828-2.3.494-6.547,5.632-6.547,5.632l-.87,1.553h0l-2.522,4.5-.267.494a13.567,13.567,0,0,0-2.527.312l-.287.381a7.07,7.07,0,0,0-1.286,2.438c-.119.989-4.247,2.813-5.933,3.792s-3.273,4.163-3.273,4.163-5.582.494-7.16,1.978c-1.1,1.028-3.8,1.038-5.325.949h0l-.391-.025c-.435-.03-.707-.064-.707-.064s-1.577-1.716-2.789-1.839a12.124,12.124,0,0,0-2.3,0s-.638-.213-1.562-.494l-.257-.074c-.218-.059-.45-.124-.7-.183l-.188-.049a2.958,2.958,0,0,0,.252-.312,2.922,2.922,0,0,0,.331-.608h0a2.472,2.472,0,0,0,.153-1.3,3.731,3.731,0,0,0-.519-1.305c-.153-.242-.312-.494-.46-.727a11.408,11.408,0,0,1-1.523-4.3h0a11.7,11.7,0,0,1,1.117-7.09,16.972,16.972,0,0,1,.989-1.647l.559-.786.351-.494.391-.549h0l.376-.529a13.877,13.877,0,0,0,1.429-2.5c.079-.173.138-.351.208-.529a.646.646,0,0,1,.054-.183c.02-.059.079-.242.109-.361s.04-.143.054-.218a2.762,2.762,0,0,0,.079-.336,1.214,1.214,0,0,1,.049-.232c.015-.074.04-.223.054-.331a.864.864,0,0,1,.035-.242l.03-.331a1.822,1.822,0,0,0,0-.232h0v-1.345a1.2,1.2,0,0,0-.035-.331c-.035-.114,0-.183-.035-.277a1.107,1.107,0,0,1-.04-.282l-.059-.287a1.176,1.176,0,0,0-.054-.262l-.074-.3a1.074,1.074,0,0,0-.064-.247c-.02-.079-.064-.2-.094-.3a2.266,2.266,0,0,0-.084-.237c-.035-.1-.064-.2-.109-.3s-.059-.143-.084-.213a9.071,9.071,0,0,0-1.038-1.834l-.722-.9h0l-.193-.242a1.067,1.067,0,0,0-.069-.129c-.044-.084-.089-.168-.129-.257-.366-.722-.663-1.483-.964-2.24-.084-.232-.183-.46-.277-.692,0-.049-.04-.1-.054-.148-.148-.356-.3-.7-.465-1.048-.124-.257-.257-.494-.391-.761-.045-.079-.089-.153-.129-.232l-.312-.494-.153-.247-.331-.494-.148-.213c-.158-.223-.316-.44-.494-.658h0c-.173-.227-.361-.45-.539-.672l-.148-.168-.43-.494-.168-.188-.45-.494-.153-.158c-.7-.727-1.444-1.429-2.2-2.116l-.391-.351h0l-1.375-1.221-.495-.41c-.143-.129-.3-.257-.45-.381a12.361,12.361,0,0,0-3.461-2.235,11.041,11.041,0,0,0-5.113-.524,17.4,17.4,0,0,0-7.793,2.724c-.188.119-.366.247-.549.381a14.463,14.463,0,0,0-2.774,2.586c-.138.163-.267.331-.4.494s-.218.3-.326.46a28.829,28.829,0,0,0-2.764,5.884c-2.685,7.115-5.409,14.463-5.79,21.993a1.972,1.972,0,0,1-.025.381q-.059,1.424,0,2.863h0a.376.376,0,0,0,0,.074,3.529,3.529,0,0,0,.03.559c.178,2.838.742,5.676,1.167,8.5l-.292.1a6.352,6.352,0,0,0-4.1,3.956.058.058,0,0,1,0,.025h0a4.221,4.221,0,0,1,.049.658,9.212,9.212,0,0,1-1.291,4.569l-.218.366h0a6.86,6.86,0,0,0-1.266,3.7,2.073,2.073,0,0,0,.168.821h0v.044a.586.586,0,0,0,0,.089v.044h0a9.891,9.891,0,0,1-1.755,3.115c-1.211,1.35-4.49,14.7-4.49,14.7a2.576,2.576,0,0,1,.218,1.068h0a2.091,2.091,0,0,1-.2.85h0a1.528,1.528,0,0,0,.178,1.37h0a5.143,5.143,0,0,0,.791,1.068s.732-.242-.494,1.1l-.074.089h0a1.419,1.419,0,0,0,.094,1.775,4.806,4.806,0,0,0,1.083,1.078s9.944,17.133,12.005,18.972,4.124,6.611,4.124,6.611.208-.331.549-.846c.158-.257.366-.559.578-.885l.633.826h0l1.281,1.676-.494.964h0a22.524,22.524,0,0,0-1.32,2.967.738.738,0,0,0-.035.272,1.078,1.078,0,0,0,.326.7c-2.472,3.244-8.356,12.262-7.911,23.368h0v.376a29.786,29.786,0,0,0,2.878,11.185,23.908,23.908,0,0,1,.247,3.357h0a1.517,1.517,0,0,1-.129.663,3.546,3.546,0,0,0,.044,1.365h0c.326,2.438,1.419,7.194,1.419,7.194v2.507c.054,4.247.143,12.584-.035,14.389-.1,1.038-.208,1.874-.292,2.472-.119.85-.193,1.3-.193,1.3s-.045.311-.114.875c0,.2-.054.435-.084.7-.405,3.343-1.34,11.457-1.894,19.061,0,.331-.049.663-.069.989-.282,4.055-.435,7.911-.326,10.7v.42c.03.712.084,1.35.158,1.9.247,1.78.465,3.872.643,6.042a6.719,6.719,0,0,0,.064.7c.316,3.956.549,8.109.687,11.105v.583a.545.545,0,0,0,0,.129.189.189,0,0,0,0,.054v2.012a7.734,7.734,0,0,0,.03.855,5.275,5.275,0,0,0,.03.628v.069h0a.085.085,0,0,1,0,.035v.059l.415,3.461,2.146,17.474.653,5.5,1.394,11.9,4.994-.944.049.544.168,1.844h0l1.394-.134c0,.178-.025.356-.035.534-.237,4.134-.158,8.317-.158,8.317h.054c1.528.282,3,.494,4.45.623v4.312h2.309l-.3-3.7-.04-.45h.044a48.791,48.791,0,0,0,9.222-.326l.277-.035.371.425,3.53,4.045a55.684,55.684,0,0,0,12.979-.989c4.564-.989,9.33-5.484,9.5-7.175h0c.059-.554-.386-.806-1.483-.534-3.263.8-8.831,0-11.625-.494-.618-1.424-2.4-5.513-3.783-8.772l-.213-.494c2.042-1.543,3.61-3.511,3.817-4.539.133-.613-.218-.89-1.236-.539a14.261,14.261,0,0,1-3.743.613H465.8a.626.626,0,0,0,.064-.094,7.707,7.707,0,0,0,1.048-5,17.017,17.017,0,0,0-.237-1.9h0v-.1a22.558,22.558,0,0,0-.593-2.433.5.5,0,0,0-.044-.153c-.094-.282-.153-.44-.153-.44s1.38-9.652,1.829-16.559a38.2,38.2,0,0,0,.079-5.375h0a.064.064,0,0,0,0-.03,2.965,2.965,0,0,0-.326-1.3,2.68,2.68,0,0,1-.41-.989.084.084,0,0,0,0-.035c-.613-2.739.766-8.406,1.483-9.889a12.7,12.7,0,0,0,.6-1.483,23.793,23.793,0,0,0,1.35-6.008,15.257,15.257,0,0,1,.727-3.916c2.25-3.234,2.893-7.738,3.046-10.829a29.746,29.746,0,0,0,0-3.5,135.43,135.43,0,0,1,.752-15.442c.109-.989.237-1.978.381-3,.223-1.553.494-3.1.811-4.579.959-4.45.554-12.426-.2-20.016,0-.223-.045-.44-.064-.658a.191.191,0,0,1,0-.049c-.752-7.367-1.815-14.24-2.25-16.97h0c-.133-.786-.208-1.231-.208-1.231a23.31,23.31,0,0,0,.87-5.31h0a4.835,4.835,0,0,0-.45-2.378,2.181,2.181,0,0,1-.272-.727h0a.575.575,0,0,1,0-.094,11.868,11.868,0,0,1-.1-2.764h0a9.737,9.737,0,0,1,.079-.989v-.1l.059-.593c.045-.346.079-.687.129-1.028a4.132,4.132,0,0,0,.42-.208,3.262,3.262,0,0,0,.658-.46c2.2-1.978,2.472-7.046,2.131-12.193a.186.186,0,0,1,0-.049V343.7a97.8,97.8,0,0,0-1.978-12.856h0a.851.851,0,0,0,0-.109c-.079-.267-.124-.44-.124-.44s0-3.619-.213-7.1a.238.238,0,0,1,0-.059q0-.044,0-.089c-.183-2.868-.495-5.6-1.113-6.1a3.8,3.8,0,0,1-.7-2.181v-.035a.5.5,0,0,1,0-.084,49.237,49.237,0,0,1,0-7.254,14.339,14.339,0,0,0,1.9-6.245h0a10.138,10.138,0,0,0-.035-1.192.616.616,0,0,0-.03-.232,3.056,3.056,0,0,0-.054-.381,6.876,6.876,0,0,0-.336-1.33q.623-.109,1.32-.282l.391-.1h0c6.477-1.661,16.634-6.428,18.671-7.125,2.794-.989,3.639-5.019,3.639-5.019s.257-.218.682-.613a33.624,33.624,0,0,0,5.6-6.809h0a20.147,20.147,0,0,0,1.874-3.906h0a14.5,14.5,0,0,0,.569-2.126,6.712,6.712,0,0,0,.1-.707h0v-.089l.47-.42h0c2.176-1.978,5.31-5.113,6.146-7.471A2.544,2.544,0,0,0,513.506,261.049Zm-64.4,179.28c-.04,1.132-.119,2.181-.188,3.076h0c-.153,1.765-.316,2.927-.316,2.927a2.022,2.022,0,0,0-.351.381,4.851,4.851,0,0,0-.539,1.078l-.119-2.932S448.347,442.975,449.1,440.329ZM431.9,315.385c-.035-.114-.074-.223-.109-.336h0l.544-.109h0c.46-.089.9-.2,1.36-.331l.173.366.672,1.409,4.846,10.21a6.234,6.234,0,0,0-1.483,3.461,2.331,2.331,0,0,0,.124.737c.247.722.554,1.014.831,1.093h0a.821.821,0,0,0,.712-.168,4.147,4.147,0,0,0-.495.92h0a1.814,1.814,0,0,0-.109.578.924.924,0,0,0,.45.865,1.681,1.681,0,0,1,.47.465h0a2.136,2.136,0,0,1,.326.959h0v.035h0a2.574,2.574,0,0,1,0,.272c0,.059,0,.109,0,.158l-.648-.193-1.429-.425a1.75,1.75,0,0,1,.771-.554l-4.411-9.691s-.935-4.173-2.156-8.3Zm9.889,195.132-.094-.494-.025-.148.193-.035a1.494,1.494,0,0,0,0,.153,2.233,2.233,0,0,0-.089.524Zm-7-194.2-.643-1.414-.257.069.672,1.409,4.846,10.211a6.234,6.234,0,0,0-1.483,3.461,2.331,2.331,0,0,0,.124.737c.247.722.554,1.014.831,1.093v-.124a3.04,3.04,0,0,1,0-.494.261.261,0,0,1,0-.064s0-.044,0-.069h0a.11.11,0,0,0,0-.04h0a.044.044,0,0,1,0-.025.123.123,0,0,1,0-.04h0a.275.275,0,0,1,0-.059h0a.439.439,0,0,0,0-.079v-.069h0v-.049l.059-.213.025-.059.03-.109c.025-.069.049-.143.079-.213s.025-.069.04-.1a.688.688,0,0,1,.059-.138c.059-.138.129-.272.193-.405a4.081,4.081,0,0,1,.2-.361,8.629,8.629,0,0,1,.653-.939Zm5.39,17.108h-.03a.613.613,0,0,1-.3,0h-.049a.633.633,0,0,1-.089-.03.7.7,0,0,1-.2-.124l-.074-.069a1.851,1.851,0,0,1-.356-.564,1.814,1.814,0,0,0-.109.579.925.925,0,0,0,.45.865,1.68,1.68,0,0,1,.47.465h0a.2.2,0,0,1,0-.079.119.119,0,0,1,0-.04,2.7,2.7,0,0,1,.213-.588l.1-.2.044-.064a.841.841,0,0,1,.064-.114l.044-.069.074-.119a.881.881,0,0,1-.252.153Zm-5.39-17.108-.643-1.414-.257.069.672,1.409,4.846,10.211a6.234,6.234,0,0,0-1.483,3.461,2.331,2.331,0,0,0,.124.737c.247.722.554,1.014.831,1.093v-.124a3.04,3.04,0,0,1,0-.494.261.261,0,0,1,0-.064s0-.044,0-.069h0a.11.11,0,0,0,0-.04h0a.125.125,0,0,1,0-.04h0a.276.276,0,0,1,0-.059h0a.762.762,0,0,1,.025-.114.111.111,0,0,1,0-.04v-.049l.059-.213.025-.059.03-.109c.025-.069.049-.143.079-.213a.583.583,0,0,1,.04-.1l.059-.138c.059-.138.129-.272.193-.405a4.081,4.081,0,0,1,.2-.361,8.629,8.629,0,0,1,.653-.939Zm5.39,17.108h-.03a.613.613,0,0,1-.3,0h-.049a.633.633,0,0,1-.089-.03.7.7,0,0,1-.2-.124l-.074-.069a1.851,1.851,0,0,1-.356-.564,1.814,1.814,0,0,0-.109.579.925.925,0,0,0,.45.865,1.68,1.68,0,0,1,.47.465h0a.034.034,0,0,0,0-.03h0a.127.127,0,0,1,0-.04.119.119,0,0,1,0-.04,2.7,2.7,0,0,1,.213-.588l.1-.2.044-.064a.848.848,0,0,1,.064-.114l.044-.069.074-.119A.881.881,0,0,1,440.173,333.428Zm-5.39-17.108-.643-1.414-.257.069.672,1.409,4.846,10.211a6.234,6.234,0,0,0-1.483,3.461,2.331,2.331,0,0,0,.124.737c.247.722.554,1.014.831,1.093v-.124a3.04,3.04,0,0,1,0-.494.261.261,0,0,1,0-.064s0-.044,0-.069h0a.11.11,0,0,0,0-.04h0a.125.125,0,0,1,0-.04h0a.276.276,0,0,1,0-.059h0a.762.762,0,0,1,.025-.114.111.111,0,0,1,0-.04v-.049l.059-.213.025-.059.03-.109c.025-.069.049-.143.079-.213a.583.583,0,0,1,.04-.1l.059-.138c.059-.138.129-.272.193-.405a4.081,4.081,0,0,1,.2-.361,8.629,8.629,0,0,1,.653-.939Zm5.39,17.108h-.03a.613.613,0,0,1-.3,0h-.049a.633.633,0,0,1-.089-.03.7.7,0,0,1-.2-.124l-.074-.069a1.851,1.851,0,0,1-.356-.564,1.814,1.814,0,0,0-.109.579.925.925,0,0,0,.45.865,1.68,1.68,0,0,1,.47.465h0a.034.034,0,0,0,0-.03h0a.127.127,0,0,1,0-.04.119.119,0,0,1,0-.04,2.7,2.7,0,0,1,.213-.588l.1-.2.044-.064a.848.848,0,0,1,.064-.114l.044-.069.074-.119A.881.881,0,0,1,440.173,333.428Zm-5.39-17.108-.643-1.414-.257.069.672,1.409,4.846,10.211a6.234,6.234,0,0,0-1.483,3.461,2.331,2.331,0,0,0,.124.737c.247.722.554,1.014.831,1.093v-.124a3.04,3.04,0,0,1,0-.494.261.261,0,0,1,0-.064s0-.044,0-.069h0a.11.11,0,0,0,0-.04h0a.125.125,0,0,1,0-.04h0a.276.276,0,0,1,0-.059h0a.762.762,0,0,1,.025-.114.111.111,0,0,1,0-.04v-.049l.059-.213.025-.059.03-.109c.025-.069.049-.143.079-.213a.583.583,0,0,1,.04-.1l.059-.138c.059-.138.129-.272.193-.405a4.081,4.081,0,0,1,.2-.361,8.629,8.629,0,0,1,.653-.939Zm5.39,17.108h-.03a.613.613,0,0,1-.3,0h-.049a.633.633,0,0,1-.089-.03.7.7,0,0,1-.2-.124l-.074-.069a1.851,1.851,0,0,1-.356-.564,1.814,1.814,0,0,0-.109.579.925.925,0,0,0,.45.865,1.68,1.68,0,0,1,.47.465h0a.034.034,0,0,0,0-.03h0a.127.127,0,0,1,0-.04.119.119,0,0,1,0-.04,2.7,2.7,0,0,1,.213-.588l.1-.2.044-.064a.848.848,0,0,1,.064-.114l.044-.069.074-.119A.881.881,0,0,1,440.173,333.428Zm-5.39-17.108-.643-1.414-.257.069.672,1.409,4.846,10.211a6.234,6.234,0,0,0-1.483,3.461,2.331,2.331,0,0,0,.124.737c.247.722.554,1.014.831,1.093v-.124a3.04,3.04,0,0,1,0-.494.261.261,0,0,1,0-.064s0-.044,0-.069h0a.11.11,0,0,0,0-.04h0a.125.125,0,0,1,0-.04h0a.276.276,0,0,1,0-.059h0a.762.762,0,0,1,.025-.114.111.111,0,0,1,0-.04v-.049l.059-.213.025-.059.03-.109c.025-.069.049-.143.079-.213a.583.583,0,0,1,.04-.1l.059-.138c.059-.138.129-.272.193-.405a4.081,4.081,0,0,1,.2-.361,8.629,8.629,0,0,1,.653-.939Zm5.39,17.108h-.03a.613.613,0,0,1-.3,0h-.049a.633.633,0,0,1-.089-.03.7.7,0,0,1-.2-.124l-.074-.069a1.851,1.851,0,0,1-.356-.564,1.814,1.814,0,0,0-.109.579.925.925,0,0,0,.45.865,1.68,1.68,0,0,1,.47.465h0a.034.034,0,0,0,0-.03h0a.127.127,0,0,1,0-.04.119.119,0,0,1,0-.04,2.7,2.7,0,0,1,.213-.588l.1-.2.044-.064a.848.848,0,0,1,.064-.114l.044-.069.074-.119A.881.881,0,0,1,440.173,333.428Zm-5.39-17.108-.643-1.414-.257.069.672,1.409,4.846,10.211a6.234,6.234,0,0,0-1.483,3.461,2.331,2.331,0,0,0,.124.737c.247.722.554,1.014.831,1.093v-.124a3.04,3.04,0,0,1,0-.494.261.261,0,0,1,0-.064s0-.044,0-.069h0a.11.11,0,0,0,0-.04h0a.125.125,0,0,1,0-.04h0a.276.276,0,0,1,0-.059h0a.762.762,0,0,1,.025-.114.111.111,0,0,1,0-.04v-.049l.059-.213.025-.059.03-.109c.025-.069.049-.143.079-.213a.583.583,0,0,1,.04-.1l.059-.138c.059-.138.129-.272.193-.405a4.081,4.081,0,0,1,.2-.361,8.629,8.629,0,0,1,.653-.939Zm5.39,17.108h-.03a.613.613,0,0,1-.3,0h-.049a.633.633,0,0,1-.089-.03.7.7,0,0,1-.2-.124l-.074-.069a1.851,1.851,0,0,1-.356-.564,1.814,1.814,0,0,0-.109.579.925.925,0,0,0,.45.865,1.68,1.68,0,0,1,.47.465h0a.034.034,0,0,0,0-.03h0a.127.127,0,0,1,0-.04.119.119,0,0,1,0-.04,2.7,2.7,0,0,1,.213-.588l.1-.2.044-.064a.848.848,0,0,1,.064-.114l.044-.069.074-.119A.881.881,0,0,1,440.173,333.428Zm-5.39-17.108-.643-1.414-.257.069.672,1.409,4.846,10.211a6.234,6.234,0,0,0-1.483,3.461,2.331,2.331,0,0,0,.124.737c.247.722.554,1.014.831,1.093v-.124a3.04,3.04,0,0,1,0-.494.261.261,0,0,1,0-.064s0-.044,0-.069h0a.11.11,0,0,0,0-.04h0a.125.125,0,0,1,0-.04h0a.276.276,0,0,1,0-.059h0a.762.762,0,0,1,.025-.114.111.111,0,0,1,0-.04v-.049l.059-.213.025-.059.03-.109c.025-.069.049-.143.079-.213a.583.583,0,0,1,.04-.1l.059-.138c.059-.138.129-.272.193-.405a4.081,4.081,0,0,1,.2-.361,8.629,8.629,0,0,1,.653-.939Zm5.39,17.108h-.03a.613.613,0,0,1-.3,0h-.049a.633.633,0,0,1-.089-.03.7.7,0,0,1-.2-.124l-.074-.069a1.851,1.851,0,0,1-.356-.564,1.814,1.814,0,0,0-.109.579.925.925,0,0,0,.45.865,1.68,1.68,0,0,1,.47.465h0a.034.034,0,0,0,0-.03h0a.127.127,0,0,1,0-.04.119.119,0,0,1,0-.04,2.7,2.7,0,0,1,.213-.588l.1-.2.044-.064a.848.848,0,0,1,.064-.114l.044-.069.074-.119A.881.881,0,0,1,440.173,333.428Zm-5.39-17.108-.643-1.414-.257.069.672,1.409,4.846,10.211a6.234,6.234,0,0,0-1.483,3.461,2.331,2.331,0,0,0,.124.737c.247.722.554,1.014.831,1.093v-.124a3.04,3.04,0,0,1,0-.494.261.261,0,0,1,0-.064s0-.044,0-.069h0a.11.11,0,0,0,0-.04h0a.125.125,0,0,1,0-.04h0a.276.276,0,0,1,0-.059h0a.762.762,0,0,1,.025-.114.111.111,0,0,1,0-.04v-.049l.059-.213.025-.059.03-.109c.025-.069.049-.143.079-.213a.583.583,0,0,1,.04-.1l.059-.138c.059-.138.129-.272.193-.405a4.081,4.081,0,0,1,.2-.361,8.629,8.629,0,0,1,.653-.939Zm5.39,17.108h-.03a.613.613,0,0,1-.3,0h-.049a.633.633,0,0,1-.089-.03.7.7,0,0,1-.2-.124l-.074-.069a1.851,1.851,0,0,1-.356-.564,1.814,1.814,0,0,0-.109.579.925.925,0,0,0,.45.865,1.68,1.68,0,0,1,.47.465h0a.034.034,0,0,0,0-.03h0a.127.127,0,0,1,0-.04.119.119,0,0,1,0-.04,2.7,2.7,0,0,1,.213-.588l.1-.2.044-.064a.848.848,0,0,1,.064-.114l.044-.069.074-.119A.881.881,0,0,1,440.173,333.428Zm-5.39-17.108-.643-1.414-.257.069.672,1.409,4.846,10.211a6.234,6.234,0,0,0-1.483,3.461,2.331,2.331,0,0,0,.124.737c.247.722.554,1.014.831,1.093v-.124a3.04,3.04,0,0,1,0-.494.261.261,0,0,1,0-.064s0-.044,0-.069h0a.11.11,0,0,0,0-.04h0a.125.125,0,0,1,0-.04h0a.276.276,0,0,1,0-.059h0a.762.762,0,0,1,.025-.114.111.111,0,0,1,0-.04v-.049l.059-.213.025-.059.03-.109c.025-.069.049-.143.079-.213a.583.583,0,0,1,.04-.1l.059-.138c.059-.138.129-.272.193-.405a4.081,4.081,0,0,1,.2-.361,8.629,8.629,0,0,1,.653-.939Zm5.39,17.108h-.03a.613.613,0,0,1-.3,0h-.049a.633.633,0,0,1-.089-.03.7.7,0,0,1-.2-.124l-.074-.069a1.851,1.851,0,0,1-.356-.564,1.814,1.814,0,0,0-.109.579.925.925,0,0,0,.45.865,1.68,1.68,0,0,1,.47.465h0a.034.034,0,0,0,0-.03h0a.147.147,0,0,1,0-.045.085.085,0,0,1,0-.035,2.7,2.7,0,0,1,.213-.588c.049-.094.094-.183.148-.267a.839.839,0,0,1,.064-.114l.044-.069.074-.119A.882.882,0,0,1,440.173,333.428Zm-5.39-17.108-.643-1.414-.257.069.672,1.409,4.846,10.211a6.234,6.234,0,0,0-1.483,3.461,2.331,2.331,0,0,0,.124.737c.247.722.554,1.014.831,1.093v-.124a3.04,3.04,0,0,1,0-.494.261.261,0,0,1,0-.064s0-.044,0-.069h0a.11.11,0,0,0,0-.04h0v-.025a.124.124,0,0,1,0-.04h0a.275.275,0,0,1,0-.059h0a.763.763,0,0,1,.025-.114.11.11,0,0,1,0-.04v-.049l.059-.213.025-.059.03-.109c.025-.069.049-.143.079-.213a.585.585,0,0,1,.04-.1l.059-.138c.059-.138.129-.272.193-.405a4.086,4.086,0,0,1,.2-.361,8.632,8.632,0,0,1,.653-.939Zm5.39,17.108h-.03a.613.613,0,0,1-.3,0h-.049a.633.633,0,0,1-.089-.03.7.7,0,0,1-.2-.124l-.074-.069a1.851,1.851,0,0,1-.356-.564,1.814,1.814,0,0,0-.109.579.925.925,0,0,0,.45.865,1.68,1.68,0,0,1,.47.465h0a.034.034,0,0,0,0-.03h0a.147.147,0,0,1,0-.045.085.085,0,0,1,0-.035,2.7,2.7,0,0,1,.213-.588c.049-.094.094-.183.148-.267a.839.839,0,0,1,.064-.114l.044-.069.074-.119A.882.882,0,0,1,440.173,333.428Z" transform="translate(-216.13 -131.003)" fill="url(#linear-gradient-24)"/>
    <path id="Caminho_67" data-name="Caminho 67" d="M483.308,783.369s7.417.91,10.992-.326-1.108,5.315-5.968,6.868a46.422,46.422,0,0,1-10.552,1.79l-5.716-5.375L466,786.79l1.058,5.933-1.884.178-.732-7.783Z" transform="translate(-240.279 -411.375)" fill="#444053"/>
    <path id="Caminho_68" data-name="Caminho 68" d="M483.308,783.369s7.417.91,10.992-.326-1.108,5.315-5.968,6.868a46.422,46.422,0,0,1-10.552,1.79l-5.716-5.375L466,786.79l1.058,5.933-1.884.178-.732-7.783Z" transform="translate(-240.279 -411.375)" opacity="0.1"/>
    <path id="Caminho_69" data-name="Caminho 69" d="M500.591,811.34s8.875,1.943,13.35.85-1.943,6.324-8.025,7.659a57.258,57.258,0,0,1-13.014.989l-6.294-7.194-7.417-.124.608,7.343H477.49V811.34Z" transform="translate(-246.876 -425.759)" fill="#444053"/>
    <path id="Caminho_70" data-name="Caminho 70" d="M500.591,811.34s8.875,1.943,13.35.85-1.943,6.324-8.025,7.659a57.258,57.258,0,0,1-13.014.989l-6.294-7.194-7.417-.124.608,7.343H477.49V811.34Z" transform="translate(-246.876 -425.759)" opacity="0.1"/>
    <path id="Caminho_71" data-name="Caminho 71" d="M448.614,469.75s-15.2,16.9-6.082,35.991c0,0,.495,3.407.124,4.015s1.459,8.51,1.459,8.51.247,14.339,0,16.782-.494,3.768-.494,3.768-3.4,26.488-2.3,34.4,1.582,22.008,1.582,22.008l4.5,37.94,23.348-4.376L460.164,576.74,459.8,567.5s4.381-11.308,2.433-17.024.494-78.554.494-78.554Z" transform="translate(-227.73 -253.07)" fill="#303d5c"/>
    <path id="Caminho_72" data-name="Caminho 72" d="M448.614,469.75s-15.2,16.9-6.082,35.991c0,0,.495,3.407.124,4.015s1.459,8.51,1.459,8.51.247,14.339,0,16.782-.494,3.768-.494,3.768-3.4,26.488-2.3,34.4,1.582,22.008,1.582,22.008l4.5,37.94,23.348-4.376L460.164,576.74,459.8,567.5s4.381-11.308,2.433-17.024.494-78.554.494-78.554Z" transform="translate(-227.73 -253.07)" opacity="0.05"/>
    <path id="Caminho_73" data-name="Caminho 73" d="M465.394,552.116c2.675,5.108.989,17.509.989,17.509-3.525,3.041-1.582,29.549-1.582,29.549s-2.433,26.147-4.01,29.173-1.34,15.565-1.34,15.565c17.875,3.283,29.549-3.768,29.549-3.768s-5.716-13.014-5.835-13.617c-.069-.341-.826.583-1.053.85.119-.163.43-.588,1.053-1.483,2.433-3.407,0-9.973,0-9.973s3.041-21.158,1.582-23.106.242-9.118,1.093-10.819a23.962,23.962,0,0,0,1.943-7.417,14.971,14.971,0,0,1,.732-3.886c3.768-5.355,3.041-14.23,3.041-14.23S491.314,543.7,493.5,533.6s-2.729-38.671-2.729-38.671,1.637-5.592.42-7.659c-.549-.93-.494-3.12-.237-5.241.3-2.6.846-5.093.846-5.093l-33.173-5.889c-.7,1.162-1.335,2.289-1.923,3.372-10.972,20.273-3.575,27.808-3.575,27.808l7.041,21.7S462.709,547.013,465.394,552.116Z" transform="translate(-233.326 -253.727)" fill="#303d5c"/>
    <path id="Caminho_74" data-name="Caminho 74" d="M586.92,299.745l4.742,4.025s.93-.742,2.176-1.854c2.967-2.68,7.773-7.531,5.973-9.588-2.472-2.809-4.944-.989-5.1-.86.267-.282,5.77-6.181,3.516-5.706s-6.566,5.6-6.566,5.6l-3.407,6.018Z" transform="translate(-302.198 -160.042)" fill="#efb7b9"/>
    <path id="Caminho_75" data-name="Caminho 75" d="M443.605,415.35l5.592,1.7-4.252,7.417-4.865-6.324Z" transform="translate(-222.48 -209.978)" fill="#efb7b9"/>
    <circle id="Elipse_8" data-name="Elipse 8" cx="15.931" cy="15.931" r="15.931" transform="translate(218.327 103.831)" fill="#efb7b9"/>
    <path id="Caminho_76" data-name="Caminho 76" d="M471.845,280.863s-14.473,22.967-.732,24.945-18.483,15.931-18.483,15.931l-12.04-12.159s12.525-21.647,10.581-29.915S471.845,280.863,471.845,280.863Z" transform="translate(-228.221 -155.261)" fill="#efb7b9"/>
    <path id="Caminho_77" data-name="Caminho 77" d="M462.82,474.492a75.292,75.292,0,0,0,9.805,2.27s17.919,7.956,24.446,5.34c.3-2.6.846-5.093.846-5.093l-33.173-5.889C464.046,472.282,463.4,473.409,462.82,474.492Z" transform="translate(-239.46 -253.762)" opacity="0.1"/>
    <path id="Caminho_78" data-name="Caminho 78" d="M429.344,341.264l3.239,6.7,3.659,7.545.494,1.078,4.336,9.395,5.513,11.906s-1.948,2.309-1.34,4.134c.569,1.706,1.459.964,1.572.86-.1.143-1.281,1.726-.232,2.423s.727,2.309.727,2.309-4.5,7.417-5.35,10.092,13.622,4.989,13.622,4.989,20.55,9.118,25.657,4.618,0-25.657,0-25.657,0-12.159-1.34-13.251-.7-9.523-.7-9.523c3.526-6.428,1.093-10.092,1.093-10.092l.989-16.535s-1.582-1.706-2.8-1.825a12.165,12.165,0,0,0-2.309,0s-.643-.218-1.567-.494c-1.948-.554-5.182-1.32-6.339-.742-1.7.85-12.643-1.34-12.643-1.34a133.854,133.854,0,0,0-14.23-1.335,14.082,14.082,0,0,0-4.826.524c-3.956,1.221-4.658,4.094-4.658,4.094a8.34,8.34,0,0,1-1.459,5.592C428.5,339.89,429.344,341.264,429.344,341.264Z" transform="translate(-222.444 -180.645)" fill="#009688"/>
    <path id="Caminho_79" data-name="Caminho 79" d="M586.92,311.636l4.742,4.025s.93-.742,2.176-1.854c.376-4.1-3.12-4.648-5.582-4.539Z" transform="translate(-302.198 -171.932)" opacity="0.1"/>
    <path id="Caminho_80" data-name="Caminho 80" d="M527.416,323.933l2.067.124s4.861.6,6.428-.855,7.175-1.943,7.175-1.943,1.582-3.165,3.283-4.134,5.839-2.8,5.933-3.773a8.331,8.331,0,0,1,1.582-2.794s9.118-2.19,7.783,4.984-8.717,13.37-8.717,13.37-.85,4.015-3.649,4.989-20.915,9.484-23.833,7.293S527.416,323.933,527.416,323.933Z" transform="translate(-270.66 -172.432)" fill="#009688"/>
    <path id="Caminho_81" data-name="Caminho 81" d="M430.445,336.811a8.411,8.411,0,0,0,1.459-5.592s.7-2.873,4.658-4.094a12.031,12.031,0,0,1,2.368-.465c-3.9,1.236-4.594,4.074-4.594,4.074a8.34,8.34,0,0,1-1.459,5.592c-1.953,3.16-1.1,4.5-1.1,4.5l3.244,6.7,3.654,7.54.524,1.083,4.336,9.37,5.513,11.906s-1.948,2.314-1.34,4.139c.569,1.706,1.459.959,1.572.86-.1.138-1.281,1.726-.232,2.423s.727,2.309.727,2.309-4.5,7.417-5.35,10.092,13.622,4.984,13.622,4.984,14.27,6.334,21.984,5.84c-6.556,2.571-24.416-5.35-24.416-5.35s-14.473-2.314-13.622-4.989,5.35-10.087,5.35-10.087a2.319,2.319,0,0,0-.727-2.309c-1.093-.727.129-2.279.232-2.423-.114.1-.989.846-1.572-.86-.608-1.825,1.34-4.134,1.34-4.134l-5.513-11.911-4.336-9.395-.494-1.078-3.659-7.545-3.239-6.7S428.5,339.976,430.445,336.811Z" transform="translate(-222.452 -180.731)" opacity="0.1"/>
    <path id="Caminho_82" data-name="Caminho 82" d="M425.2,352.68l-2.186,1.825a10.041,10.041,0,0,1-1.825,3.283c-1.216,1.34-4.5,14.591-4.5,14.591a2.364,2.364,0,0,1,0,1.948c-.494.989.989,2.433.989,2.433s.727-.242-.494,1.093,1.1,2.927,1.1,2.927,9.968,17.014,12.035,18.839,4.134,6.566,4.134,6.566,4.331-6.794,5.35-6.922l-4.252-9.6s-2.922-13.38-5.108-15.823,1.093-10.829,1.093-10.829Z" transform="translate(-216.086 -193.886)" fill="#009688"/>
    <path id="Caminho_83" data-name="Caminho 83" d="M429.537,364.272c1.829,2.2,5.038,2.66,7.877,2.339.415-.049.836-.114,1.246-.193a18.144,18.144,0,0,0,1.844-.43,19.226,19.226,0,0,0,6.042-2.967,4.154,4.154,0,0,1,1.355-.781,2.86,2.86,0,0,1,2.883,1.548c.618.989.91,2.156,1.543,3.135a7.218,7.218,0,0,0,5.973,2.932,21.29,21.29,0,0,0,6.764-1.325c-1.785-2.2-3.614-4.48-4.341-7.214a17.082,17.082,0,0,1-.341-5.439c.524-8.6,3.511-17.672,10.527-22.686,1.216-.865,2.685-1.889,3.09-3.2-1.948-.554-5.182-1.32-6.339-.742-1.7.85-12.643-1.34-12.643-1.34a133.846,133.846,0,0,0-14.23-1.335,14.083,14.083,0,0,0-4.826.524c.6,3.654,1.117,7.288.4,10.878a24.361,24.361,0,0,1-2.408,6.4c-.623,1.211-1.3,2.4-1.978,3.6-1.849,3.328-3.614,6.665-3.956,10.384A8.31,8.31,0,0,0,429.537,364.272Z" transform="translate(-221.85 -180.671)" opacity="0.1"/>
    <path id="Caminho_84" data-name="Caminho 84" d="M474.659,436.978a8.589,8.589,0,0,0-2.848-.247,5.241,5.241,0,0,0-2.131,1.241l6.25.035c1.607,0,4.03.1,5.261-1.038C480.064,435.851,476.266,437.186,474.659,436.978Z" transform="translate(-242.928 -236.269)" opacity="0.1"/>
    <path id="Caminho_85" data-name="Caminho 85" d="M474.779,251.41a9.439,9.439,0,0,1,1.083,9.157c-.989,2.349-2.932,4.188-4.114,6.453a11.63,11.63,0,0,0,.4,11.264,5.688,5.688,0,0,1,.989,2.022c.282,1.854-1.637,3.184-3.165,4.277-7.021,5-10,14.077-10.527,22.686a17.057,17.057,0,0,0,.336,5.439c.727,2.734,2.561,5.019,4.346,7.214a21.293,21.293,0,0,1-6.769,1.325,7.218,7.218,0,0,1-5.973-2.932c-.633-.989-.93-2.146-1.543-3.135a2.858,2.858,0,0,0-2.873-1.548,4.015,4.015,0,0,0-1.36.776A19.239,19.239,0,0,1,436.468,318c-2.838.326-6.047-.143-7.872-2.339a8.065,8.065,0,0,1-1.483-5.879c.633-7.362,6.868-13.152,8.312-20.4,1.167-5.874-.949-11.867-1.335-17.83-.578-8.836,2.63-17.435,5.79-25.712A27.289,27.289,0,0,1,442.649,240a16.353,16.353,0,0,1,11.867-6.665,11.111,11.111,0,0,1,5.128.494,15.563,15.563,0,0,1,4.4,3.011c3.016,2.616,6.116,5.34,7.852,8.94.707,1.483,1.172,3.051,1.978,4.48Z" transform="translate(-221.385 -133.497)" fill="#3f3d56"/>
    <g id="Grupo_1" data-name="Grupo 1" transform="translate(206.598 106.402)" opacity="0.1">
      <path id="Caminho_86" data-name="Caminho 86" d="M513.16,255c-.791-1.429-1.251-3.011-1.978-4.48a17.952,17.952,0,0,0-2.522-3.8,21.345,21.345,0,0,1,4.45,5.879c.687,1.424,1.147,2.967,1.894,4.356l-.959-.811a8.086,8.086,0,0,1,.672,1.053A10.875,10.875,0,0,1,513.16,255Z" transform="translate(-469.232 -246.72)"/>
      <path id="Caminho_87" data-name="Caminho 87" d="M435.447,395.9a19.16,19.16,0,0,0,9.138-3.59,4.115,4.115,0,0,1,1.36-.776,2.857,2.857,0,0,1,2.878,1.548c.129.208.242.43.351.653a1.978,1.978,0,0,0-1.281-.124,4.013,4.013,0,0,0-1.36.776,19.239,19.239,0,0,1-9.138,3.595c-2.838.326-6.047-.143-7.872-2.339a6.13,6.13,0,0,1-.6-.9A10.141,10.141,0,0,0,435.447,395.9Z" transform="translate(-428.92 -319.9)"/>
      <path id="Caminho_88" data-name="Caminho 88" d="M480.012,336.674a21.318,21.318,0,0,0,6.764-1.325c-1.785-2.2-3.614-4.48-4.341-7.214a17.065,17.065,0,0,1-.341-5.439c.524-8.608,3.511-17.682,10.532-22.686,1.528-1.093,3.461-2.423,3.165-4.282a5.79,5.79,0,0,0-.989-2.017,11.63,11.63,0,0,1-.4-11.264c1.187-2.265,3.115-4.1,4.119-6.458a9.474,9.474,0,0,0-.415-8.1,11.35,11.35,0,0,0,1.068.989,10.878,10.878,0,0,0,.88,1.078,9.469,9.469,0,0,1,.41,8.1c-.989,2.349-2.932,4.188-4.114,6.453a11.63,11.63,0,0,0,.4,11.264,5.686,5.686,0,0,1,.989,2.022c.282,1.854-1.637,3.184-3.165,4.277-7.021,5-10,14.077-10.527,22.686a17.058,17.058,0,0,0,.336,5.439c.727,2.734,2.561,5.019,4.346,7.214a21.292,21.292,0,0,1-6.769,1.325,7.218,7.218,0,0,1-5.973-2.932c-.084-.129-.158-.262-.232-.4A8.292,8.292,0,0,0,480.012,336.674Z" transform="translate(-452.595 -257.422)"/>
    </g>
    <path id="Caminho_89" data-name="Caminho 89" d="M290.274,179.57v10.384H245.19q2.062-2.858,4.213-5.637c.2-.257.4-.494.6-.766l2.111-2.655h0l.292-.361h0l.766-.935Z" transform="translate(-129.438 -106.371)" fill="#009688" opacity="0.2"/>
    <rect id="Retângulo_54" data-name="Retângulo 54" width="47.374" height="10.374" transform="translate(206.747 73.199)" fill="#009688" opacity="0.2"/>
    <rect id="Retângulo_55" data-name="Retângulo 55" width="47.374" height="10.374" transform="translate(315.552 73.199)" fill="#009688" opacity="0.2"/>
    <rect id="Retângulo_56" data-name="Retângulo 56" width="47.374" height="10.374" transform="translate(407.575 73.199)" fill="#009688" opacity="0.2"/>
  </g>
</svg>
